<?xml version="1.0" encoding="UTF-8" standalone="no"?>
<!-- Created with Inkscape (http://www.inkscape.org/) -->

<svg
   xmlns:dc="http://purl.org/dc/elements/1.1/"
   xmlns:cc="http://creativecommons.org/ns#"
   xmlns:rdf="http://www.w3.org/1999/02/22-rdf-syntax-ns#"
   xmlns:svg="http://www.w3.org/2000/svg"
   xmlns="http://www.w3.org/2000/svg"
   xmlns:sodipodi="http://sodipodi.sourceforge.net/DTD/sodipodi-0.dtd"
   xmlns:inkscape="http://www.inkscape.org/namespaces/inkscape"
   width="744.09448819"
   height="1052.3622047"
   id="svg2"
   version="1.1"
   inkscape:version="0.48.4 r9939"
   sodipodi:docname="Rysunek-1.svg">
  <defs
     id="defs4">
    <marker
       inkscape:stockid="EmptyDiamondL"
       orient="auto"
       refY="0.0"
       refX="0.0"
       id="EmptyDiamondL"
       style="overflow:visible">
      <path
         id="path4503"
         d="M 0,-7.0710768 L -7.0710894,0 L 0,7.0710589 L 7.0710462,0 L 0,-7.0710768 z "
         style="fill-rule:evenodd;fill:#FFFFFF;stroke:#000000;stroke-width:1.0pt"
         transform="scale(0.8)" />
    </marker>
    <marker
       inkscape:stockid="Arrow1Lstart"
       orient="auto"
       refY="0.0"
       refX="0.0"
       id="Arrow1Lstart"
       style="overflow:visible">
      <path
         id="path4397"
         d="M 0.0,0.0 L 5.0,-5.0 L -12.5,0.0 L 5.0,5.0 L 0.0,0.0 z "
         style="fill-rule:evenodd;stroke:#000000;stroke-width:1.0pt"
         transform="scale(0.8) translate(12.5,0)" />
    </marker>
    <inkscape:path-effect
       effect="skeletal"
       id="path-effect3091"
       is_visible="true"
       pattern="M 0,5 C 0,2.24 2.24,0 5,0 7.76,0 10,2.24 10,5 10,7.76 7.76,10 5,10 2.24,10 0,7.76 0,5 z"
       copytype="single_stretched"
       prop_scale="1"
       scale_y_rel="false"
       spacing="0"
       normal_offset="0"
       tang_offset="0"
       prop_units="false"
       vertical_pattern="false"
       fuse_tolerance="0" />
    <inkscape:path-effect
       effect="skeletal"
       id="path-effect3087"
       is_visible="true"
       pattern="M 0,5 C 0,2.24 2.24,0 5,0 7.76,0 10,2.24 10,5 10,7.76 7.76,10 5,10 2.24,10 0,7.76 0,5 z"
       copytype="single_stretched"
       prop_scale="1"
       scale_y_rel="false"
       spacing="0"
       normal_offset="0"
       tang_offset="0"
       prop_units="false"
       vertical_pattern="false"
       fuse_tolerance="0" />
  </defs>
  <sodipodi:namedview
     id="base"
     pagecolor="#ffffff"
     bordercolor="#666666"
     borderopacity="1.0"
     inkscape:pageopacity="0.0"
     inkscape:pageshadow="2"
     inkscape:zoom="3.8534263"
     inkscape:cx="680.26416"
     inkscape:cy="600.93013"
     inkscape:document-units="px"
     inkscape:current-layer="layer1"
     showgrid="false"
     inkscape:window-width="1366"
     inkscape:window-height="721"
     inkscape:window-x="-4"
     inkscape:window-y="-4"
     inkscape:window-maximized="1" />
  <metadata
     id="metadata7">
    <rdf:RDF>
      <cc:Work
         rdf:about="">
        <dc:format>image/svg+xml</dc:format>
        <dc:type
           rdf:resource="http://purl.org/dc/dcmitype/StillImage" />
        <dc:title></dc:title>
      </cc:Work>
    </rdf:RDF>
  </metadata>
  <g
     inkscape:label="Layer 1"
     inkscape:groupmode="layer"
     id="layer1">
    <path
       style="fill:none;stroke:#000000;stroke-width:3;stroke-linecap:butt;stroke-linejoin:miter;stroke-miterlimit:4;stroke-opacity:1;stroke-dasharray:none"
       d="m 168.09186,495.21064 c 26.89494,0.49598 39.83354,0.16081 64.69086,-0.0175"
       id="path4179"
       inkscape:connector-curvature="0"
       sodipodi:nodetypes="cc" />
    <path
       style="fill:none;stroke:#000000;stroke-width:2.5;stroke-linecap:round;stroke-linejoin:bevel;stroke-miterlimit:4;stroke-opacity:1;stroke-dasharray:none;marker-start:none;marker-end:none"
       d="m 231.56429,494.91452 c -0.48589,-1.31243 0.49426,-1.61561 -0.45974,-22.32937 -1.76357,-23.85256 -22.40116,-46.90548 -25.56579,-54.9276 -11.29866,-2.32548 -4.30387,5.44433 -8.83213,7.31663"
       id="path4191"
       inkscape:connector-curvature="0"
       sodipodi:nodetypes="cccc" />
    <path
       style="fill:none;stroke:#000000;stroke-width:2;stroke-linecap:butt;stroke-linejoin:miter;stroke-miterlimit:4;stroke-opacity:1;stroke-dasharray:none"
       d="m 197.0897,424.91767 c -12.62168,8.26576 -22.02107,12.74594 -28.86454,19.15534 -3.12793,10.82152 -0.63191,14.81608 1.24005,15.9875 10.14066,0.37561 16.00199,0.0863 26.81984,-0.3175 0.37633,7.37491 0.32078,-0.73614 0.50579,8.23317 -7.5998,10.62194 -19.78203,12.82 -27.95505,19.93572"
       id="path4207"
       inkscape:connector-curvature="0"
       sodipodi:nodetypes="cccccc" />
    <path
       style="fill:none;stroke:#000000;stroke-width:2.5;stroke-linecap:butt;stroke-linejoin:miter;stroke-miterlimit:4;stroke-opacity:1;stroke-dasharray:none"
       d="m 169.54514,487.22843 c -0.57951,4.72108 -0.41919,2.6557 -0.24115,8.01772"
       id="path4209"
       inkscape:connector-curvature="0"
       sodipodi:nodetypes="cc" />
    <path
       style="fill:#f9f9f9;fill-opacity:1;fill-rule:nonzero;stroke:#000000;stroke-width:1.66596913;stroke-linecap:round;stroke-linejoin:bevel;stroke-miterlimit:4;stroke-dasharray:none"
       d="m 170.68139,491.10221 c 0,-3.17642 0.86566,-4.0275 8.15827,-8.02087 8.51782,-4.66427 12.56506,-7.4181 15.93567,-10.843 l 3.11689,-3.16708 -0.008,-3.96499 c -0.004,-2.18075 -0.15731,-4.52357 -0.34029,-5.20628 l -0.33271,-1.2413 -13.67939,0.005 c -15.21901,0.006 -14.66492,0.1452 -15.34244,-3.86501 -0.19283,-1.14135 -0.0615,-3.7352 0.2918,-5.76411 0.55169,-3.168 0.9363,-3.95444 2.72361,-5.56917 2.7233,-2.46034 6.71196,-5.13237 17.52417,-11.73954 4.88684,-2.98627 9.35002,-5.87051 9.91819,-6.4094 0.58839,-0.55809 1.15654,-2.0757 1.32,-3.52594 0.20775,-1.84319 0.57413,-2.63725 1.3271,-2.87623 1.50938,-0.47906 3.16765,0.19539 3.90226,1.58713 0.35182,0.66652 3.19027,5.21019 6.30767,10.09703 9.51279,14.91227 14.08621,24.06726 16.36748,32.76406 0.71064,2.70914 1.32323,7.31232 1.72203,12.52205 0.29537,3.85863 0.47346,8.04999 0.48724,12.051 l 0.0196,5.69206 -29.70978,0 -29.70978,0 0,-2.52547 z"
       id="path5397"
       inkscape:connector-curvature="0"
       sodipodi:nodetypes="csscccccscsscsssssssccccc" />
    <path
       style="fill:none;stroke:#000000;stroke-width:2.62620378;stroke-linecap:round;stroke-linejoin:round;stroke-miterlimit:4;stroke-opacity:1;stroke-dasharray:none"
       d="m 268.31684,481.16595 c 0.36864,-2.90093 -0.40397,-6.65175 -0.85177,-10.22648 -1.81302,-14.47302 -9.11329,-33.14932 -12.149,-45.34739 5.11544,8.80579 9.36446,13.98082 13.25754,19.49195 3.89308,5.51111 7.43021,11.35831 11.1219,21.50844 m 17.79015,0.008 c 1.00548,-2.63747 22.84279,-41.02064 24.93488,-38.96273 2.64985,2.60654 -15.81623,45.87295 -12.01443,55.10013"
       id="path5403"
       inkscape:connector-curvature="0"
       sodipodi:nodetypes="csccccsc" />
    <path
       style="fill:none;stroke:#000000;stroke-width:2.10096312;stroke-linecap:butt;stroke-linejoin:round;stroke-miterlimit:4;stroke-opacity:1;stroke-dasharray:none"
       d="m 254.27176,416.7822 c -11.84809,8.21257 11.5553,9.65154 0,0 z"
       id="path5405"
       inkscape:connector-curvature="0"
       sodipodi:nodetypes="cc" />
    <path
       style="fill:none;stroke:#000000;stroke-width:2.10096312;stroke-linecap:butt;stroke-linejoin:miter;stroke-miterlimit:4;stroke-opacity:1;stroke-dasharray:none"
       d="m 288.74799,418.3594 c -3.12513,0.61121 -2.82628,3.12917 -1.45006,4.48288 6.09111,5.99161 9.08733,-11.15085 0.20715,-3.87158"
       id="path5407"
       inkscape:connector-curvature="0"
       sodipodi:nodetypes="csc" />
    <path
       style="fill:none;stroke:#000000;stroke-width:2.10096312;stroke-linecap:butt;stroke-linejoin:miter;stroke-miterlimit:4;stroke-opacity:1;stroke-dasharray:none"
       d="m 323.71605,421.04822 c -1.06217,0.21141 -2.65862,0.57749 -3.31443,1.22259 -0.68756,0.67633 0.0637,1.89651 0.4143,2.24144 5.40159,5.31335 8.42686,-4.82315 2.90013,-3.46403 z"
       id="path5409"
       inkscape:connector-curvature="0" />
    <path
       style="fill:none;stroke:#000000;stroke-width:3.05329323;stroke-linecap:round;stroke-linejoin:miter;stroke-miterlimit:4;stroke-opacity:1;stroke-dasharray:none"
       d="m 559.33551,481.88925 c 0.16872,5.11918 -7.99545,5.37373 -9.66531,12.46932 21.04883,0.0446 38.51989,0.35137 60.64789,-0.24258 -2.23145,-6.6224 -8.92068,-6.33283 -8.94426,-11.36224"
       id="path5415"
       inkscape:connector-curvature="0"
       sodipodi:nodetypes="cccc" />
    <path
       style="fill:none;stroke:#000000;stroke-width:2.10096312;stroke-linecap:round;stroke-linejoin:miter;stroke-miterlimit:4;stroke-opacity:1;stroke-dasharray:none"
       d="m 279.83833,466.67405 c 8.56482,-28.05526 6.25468,-38.10629 9.49908,-40.81815 4.28492,-3.75527 3.98722,24.83923 7.99926,40.73619"
       id="path5417"
       inkscape:connector-curvature="0"
       sodipodi:nodetypes="ccc" />
    <path
       style="fill:#f9f9f9;fill-opacity:1;fill-rule:nonzero;stroke:#000000;stroke-width:0.31091091;stroke-linecap:round;stroke-linejoin:round;stroke-miterlimit:4;stroke-dasharray:none"
       d="m 225.14558,440.21597 c 0.5916,-1.00269 2.01374,-2.39918 4.27592,-4.19881 3.22614,-2.56649 4.27285,-4.08229 4.27815,-6.19541 0.007,-2.81075 -0.86014,-10.59786 -1.68792,-15.1569 -1.11007,-6.1137 -3.03789,-13.32663 -6.81102,-25.48334 -1.07281,-3.45652 -1.92867,-6.30649 -1.9019,-6.33326 0.0268,-0.0268 0.42369,0.49278 0.88203,1.15455 0.45835,0.66178 2.29903,3.22678 4.0904,5.69999 3.51605,4.85433 5.9249,8.43028 7.33804,10.89334 1.9876,3.46433 4.34586,8.53675 6.03991,12.99138 0.67347,1.77093 0.99067,2.16552 1.74077,2.16552 0.72715,0 1.26739,-0.38096 1.39402,-0.98302 0.0571,-0.27159 0.54343,-2.03281 1.08068,-3.91382 2.51039,-8.78922 4.18715,-16.51817 5.44665,-25.10606 1.26849,-8.64915 1.51024,-9.83504 2.17488,-10.66858 l 0.34107,-0.42775 0.33373,0.89197 c 0.77355,2.06748 1.34789,5.9979 2.74056,18.75441 1.03263,9.45872 1.69446,13.9522 2.86204,19.43193 0.34845,1.63534 0.62984,2.02092 1.47485,2.02092 0.75951,0 1.13309,-0.37264 1.89553,-1.89074 2.93161,-5.83719 13.0759,-22.99646 17.65963,-29.8716 1.61091,-2.41622 3.83791,-5.54697 3.94573,-5.54697 0.29861,0 -1.69839,6.9922 -4.90607,17.17783 -6.20176,19.69304 -7.95745,27.72935 -7.38678,33.81156 0.11632,1.23976 0.28732,2.50639 0.37999,2.81473 0.34243,1.1393 1.34984,2.42722 2.75174,3.51796 3.23034,2.51335 3.65454,2.87596 4.25904,3.64071 0.47287,0.59822 0.58492,0.836 0.43325,0.91937 -0.45841,0.25199 -16.30328,0.45677 -35.29341,0.45615 l -20.1651,-6.7e-4 0.33359,-0.56539 z"
       id="path5421"
       inkscape:connector-curvature="0" />
    <path
       style="fill:#f9f9f9;fill-opacity:1;fill-rule:nonzero;stroke:#000000;stroke-width:0.31091091;stroke-linecap:round;stroke-linejoin:round;stroke-miterlimit:4;stroke-dasharray:none"
       d="m 253.43158,422.2072 c -0.74717,-0.18792 -1.33244,-0.67093 -1.3893,-1.14655 -0.0615,-0.51472 0.66626,-1.60058 1.53278,-2.28688 l 0.63561,-0.50341 0.6196,0.6043 c 0.82498,0.80462 1.53587,1.93442 1.53587,2.44093 0,0.27001 -0.13779,0.50059 -0.40296,0.67433 -0.45985,0.30131 -1.75542,0.41251 -2.5316,0.21728 l 0,0 z"
       id="path5423"
       inkscape:connector-curvature="0" />
    <path
       style="fill:#f9f9f9;fill-opacity:1;fill-rule:nonzero;stroke:#000000;stroke-width:0.31091091;stroke-linecap:round;stroke-linejoin:round;stroke-miterlimit:4;stroke-dasharray:none"
       d="m 288.71906,422.50564 c -0.71663,-0.51912 -1.26035,-1.29415 -1.26125,-1.79781 -6.8e-4,-0.38356 0.32441,-0.68793 1.12647,-1.05465 0.32063,-0.14659 0.58296,-0.32209 0.58296,-0.38999 0,-0.20628 1.49247,-0.95015 1.90633,-0.95015 0.50151,0 0.7446,0.30679 0.84679,1.06872 0.1953,1.45606 -1.04456,3.59495 -2.0839,3.59495 -0.27335,0 -0.73687,-0.19541 -1.1174,-0.47107 z"
       id="path5425"
       inkscape:connector-curvature="0" />
    <path
       style="fill:#f9f9f9;fill-opacity:1;fill-rule:nonzero;stroke:#000000;stroke-width:0.31091091;stroke-linecap:round;stroke-linejoin:round;stroke-miterlimit:4;stroke-dasharray:none"
       d="m 322.73571,424.54038 c -0.70183,-0.45242 -1.11116,-0.82813 -1.29526,-1.18888 -0.14474,-0.28363 -0.10185,-0.35522 0.33865,-0.56528 0.91885,-0.43817 2.88226,-0.80014 3.30223,-0.60879 0.63931,0.29128 0.49209,1.45246 -0.2935,2.31497 -0.40843,0.44842 -1.39512,0.47149 -2.05212,0.048 z"
       id="path5427"
       inkscape:connector-curvature="0" />
    <path
       style="fill:none;stroke:#000000;stroke-width:3.12095761;stroke-linecap:round;stroke-linejoin:miter;stroke-miterlimit:4;stroke-opacity:1;stroke-dasharray:none"
       d="m 482.19159,478.36908 c 1.95845,12.2223 13.88546,6.46212 14.12045,16.54406 -21.26848,-0.11671 -40.98193,-0.1884 -61.80646,-0.20115 0.0712,-10.72001 11.22092,-6.32908 13.28073,-16.66847"
       id="path5431"
       inkscape:connector-curvature="0"
       sodipodi:nodetypes="cccc" />
    <path
       style="fill:none;stroke:#000000;stroke-width:2.63050222;stroke-linecap:round;stroke-linejoin:miter;stroke-miterlimit:4;stroke-opacity:1;stroke-dasharray:none"
       d="m 395.36896,477.79236 c -3.09788,-4.19495 -0.30562,-28.49036 0.75958,-28.72312 1.44089,-0.31488 9.67068,0.85592 9.66952,-0.25223 -0.0116,-11.03591 -0.29922,-20.23983 -0.0463,-27.81312"
       id="path5433"
       inkscape:connector-curvature="0"
       sodipodi:nodetypes="cssc" />
    <path
       style="fill:none;stroke:#000000;stroke-width:2.63050222;stroke-linecap:round;stroke-linejoin:miter;stroke-miterlimit:4;stroke-opacity:1;stroke-dasharray:none"
       d="m 360.392,477.96887 c 3.90825,-4.33423 0.9493,-25.83152 0.82969,-28.87109 -0.0885,-2.24975 -9.56807,0.43756 -9.48318,-1.59178 0.41638,-9.95379 -1.2003,-18.42195 -0.63804,-27.2939"
       id="path5435"
       inkscape:connector-curvature="0"
       sodipodi:nodetypes="cssc" />
    <path
       style="fill:none;stroke:#000000;stroke-width:1.57830143;stroke-linecap:butt;stroke-linejoin:miter;stroke-miterlimit:4;stroke-opacity:1;stroke-dasharray:none"
       d="m 350.39897,419.753 c 4.44525,-0.0485 11.43441,-1.47557 11.2477,0.69707 -0.20684,2.40729 -0.0496,7.52772 0.13549,10.93372 0,0 7.94182,0.17524 7.95325,1.6e-4 0.55298,-8.46356 0.17889,-10.47946 0.17889,-14.18252 0,-0.45376 17.90014,-0.35847 17.85174,0.23317 -0.41056,5.01821 -0.338,11.63979 -0.44534,13.96525 -0.0419,0.90735 6.37223,0.53377 8.23383,0.49884 1.39811,-0.0263 0.3877,-11.2211 1.02549,-11.30959 1.63228,0.23453 7.45259,0.02 9.21719,0.02"
       id="path5437"
       inkscape:connector-curvature="0"
       sodipodi:nodetypes="cssssssscc" />
    <path
       style="fill:#f9f9f9;fill-opacity:1;fill-rule:nonzero;stroke:#000000;stroke-width:0.4346427;stroke-linecap:round;stroke-linejoin:miter;stroke-miterlimit:4;stroke-dasharray:none"
       d="m 227.20654,393.59135 c 0.0152,-0.86533 1.16824,-2.80612 2.06287,-3.47222 0.53529,-0.39855 2.12873,-1.36136 3.54096,-2.13957 4.6405,-2.55714 5.96132,-4.17553 7.42165,-9.09362 1.15161,-3.87838 1.49422,-8.30233 1.15783,-14.95016 -0.34648,-6.84703 -0.89943,-13.46804 -1.19071,-14.25736 -0.41327,-1.1199 -1.88978,-1.50723 -5.74562,-1.50723 l -3.48644,0 -0.003,-2.97006 c -0.002,-1.63353 -0.1953,-6.36027 -0.42988,-10.50386 -0.49639,-8.7682 -0.53299,-11.71282 -0.15306,-12.31381 0.22084,-0.34933 1.02228,-0.43379 4.12467,-0.43465 l 3.85057,-10e-4 0.0783,5.83076 0.0783,5.83076 2.59085,0.20268 c 1.42497,0.11147 3.62116,0.1128 4.88042,0.003 l 2.28957,-0.19972 0.18453,-2.18298 c 0.10149,-1.20064 0.18453,-4.37292 0.18453,-7.04953 l 0,-4.86655 3.83934,-0.0881 c 2.11164,-0.0485 5.6613,-0.0229 7.88815,0.0568 l 4.0488,0.14488 -0.0734,4.92595 c -0.0404,2.70928 -0.15019,5.79291 -0.24401,6.85253 -0.24354,2.75067 0.0417,2.90437 5.34861,2.88253 4.32876,-0.0178 4.82074,-0.0988 5.14925,-0.84729 0.117,-0.26657 0.27226,-2.73395 0.34504,-5.48307 l 0.13231,-4.99839 3.44428,0 3.44427,0 0,13.20923 0,13.20923 -4.43426,-0.20615 -4.43427,-0.20614 -0.49767,0.75954 c -1.12239,1.71299 -2.22493,11.38439 -2.21745,19.4513 0.009,9.30882 1.37625,14.63458 4.49668,17.51089 0.7852,0.72377 2.77442,1.92232 4.93087,2.97097 3.46124,1.68315 5.05372,2.90589 5.05372,3.88036 0,0.35394 -4.08742,0.41241 -28.8313,0.41241 -22.87526,0 -28.82998,-0.0748 -28.82493,-0.3622 z"
       id="path5441"
       inkscape:connector-curvature="0" />
    <path
       style="fill:none;stroke:#000000;stroke-width:2.47176933;stroke-linecap:butt;stroke-linejoin:bevel;stroke-miterlimit:4;stroke-opacity:1;stroke-dasharray:none"
       d="m 448.11726,477.93093 c -8.13339,-12.49585 -5.80808,-32.38043 2.6128,-44.44007 3.35126,-6.42501 18.66775,-19.66546 13.335,-14.76042 -0.0522,-3.76606 10.99919,11.19266 12.80158,14.58676 10.16471,11.54169 11.81899,27.27049 5.00154,45.38387"
       id="path5445"
       inkscape:connector-curvature="0"
       sodipodi:nodetypes="ccccc" />
    <path
       style="fill:none;stroke:#000000;stroke-width:2.9661231;stroke-linecap:round;stroke-linejoin:miter;stroke-miterlimit:4;stroke-opacity:1;stroke-dasharray:none"
       d="m 464.58814,435.11931 c 0.18498,5.20369 0.35506,29.01199 0.35506,31.90259"
       id="path5447"
       inkscape:connector-curvature="0"
       sodipodi:nodetypes="cc" />
    <path
       style="fill:none;stroke:#000000;stroke-width:2.9661231;stroke-linecap:round;stroke-linejoin:miter;stroke-miterlimit:4;stroke-opacity:1;stroke-dasharray:none"
       d="m 457.48714,445.86909 c 2.88508,-0.31017 10.29597,-0.17338 14.37954,-0.17338"
       id="path5453"
       inkscape:connector-curvature="0"
       sodipodi:nodetypes="cc" />
    <path
       style="fill:#f9f9f9;fill-opacity:1;fill-rule:nonzero;stroke:#000000;stroke-width:0.68444335;stroke-linecap:round;stroke-linejoin:bevel;stroke-miterlimit:4;stroke-dasharray:none"
       d="m 369.26513,405.62744 -19.87787,-0.11461 0.32514,-1.08899 c 0.45301,-1.51728 1.76645,-2.70385 4.74121,-4.28328 3.97944,-2.11284 5.53559,-3.44764 6.80688,-5.83863 0.58923,-1.10819 1.21858,-3.06026 1.21858,-3.77967 0,-0.27008 -0.34404,-1.06615 -0.76452,-1.76908 -3.18355,-5.32182 -4.74287,-13.14225 -4.09861,-20.55577 0.68009,-7.82608 2.93685,-14.5753 7.04908,-21.08153 2.20186,-3.48368 4.43637,-6.123 9.05396,-10.69415 l 4.00169,-3.96145 1.63766,1.68104 c 1.94095,1.99237 5.46944,6.53903 7.88184,10.15618 0.95111,1.4261 2.42438,3.50255 3.27393,4.61435 7.71953,10.10238 9.14917,23.77471 4.06667,38.89155 -0.51484,1.53128 -0.93606,3.13132 -0.93606,3.55564 0,1.10643 1.03339,3.95742 1.93139,5.32848 1.19823,1.82943 2.73069,2.9865 5.91773,4.46812 3.83485,1.78279 3.74152,1.73538 4.2759,2.17202 0.66904,0.54668 1.49552,1.74237 1.49552,2.16361 0,0.32418 -0.89603,0.35437 -9.06113,0.30527 -4.98361,-0.03 -18.00615,-0.10606 -28.93899,-0.1691 l 0,0 z m 9.73378,-24.89921 c 0.43264,-0.30994 0.44755,-0.6754 0.43157,-10.58041 l -0.0165,-10.25939 3.09632,-0.0731 c 2.93114,-0.0692 3.11983,-0.10148 3.5371,-0.60538 0.5261,-0.6353 0.55388,-1.33155 0.0777,-1.94789 -0.31382,-0.40621 -0.66799,-0.45822 -3.57093,-0.52434 l -3.22256,-0.0734 -0.0101,-3.98506 c -0.0111,-4.39944 -0.19888,-5.83984 -0.81911,-6.28278 -0.57537,-0.4109 -1.33588,-0.36825 -1.93903,0.10875 -0.50071,0.396 -0.51013,0.50047 -0.47801,5.29857 l 0.0328,4.89461 -2.37556,0.006 c -2.72505,0.006 -4.08352,0.25178 -4.5048,0.81447 -0.43924,0.5867 -0.35661,1.53576 0.1746,2.00528 0.41431,0.3662 0.83394,0.40826 3.57828,0.3586 l 3.10893,-0.0563 0.0278,0.86007 c 0.0153,0.47304 0.0932,5.10442 0.17315,10.29195 0.13846,8.98824 0.16637,9.44692 0.59342,9.75162 0.57434,0.40977 1.53187,0.40919 2.10489,-9.8e-4 l 0,6e-5 z"
       id="path5455"
       inkscape:connector-curvature="0" />
    <path
       style="fill:none;stroke:#000000;stroke-width:2.42213821;stroke-linecap:butt;stroke-linejoin:round;stroke-miterlimit:4;stroke-opacity:1;stroke-dasharray:none"
       d="m 600.85252,482.58898 c 11.83644,-3.27036 11.5199,-39.8987 7.97959,-40.33711 -4.07661,-4.16854 -24.88158,15.05385 -28.81916,10.94322 -4.32551,4.15336 -23.31013,-14.34978 -25.46056,-10.88519 -7.60919,7.12434 -6.52083,31.80901 5.08308,39.37147"
       id="path5467"
       inkscape:connector-curvature="0"
       sodipodi:nodetypes="ccccc" />
    <path
       style="fill:none;stroke:#000000;stroke-width:1.93771052;stroke-linecap:butt;stroke-linejoin:miter;stroke-miterlimit:4;stroke-opacity:1;stroke-dasharray:none"
       d="m 566.02608,447.88723 c 0.1191,-2.54391 11.91648,-19.80409 14.55609,-19.90207 2.25931,-0.0838 13.85799,17.58222 13.40084,19.46941"
       id="path5469"
       inkscape:connector-curvature="0"
       sodipodi:nodetypes="csc" />
    <path
       style="fill:none;stroke:#000000;stroke-width:2.42213821000000000;stroke-linecap:round;stroke-linejoin:miter;stroke-miterlimit:4;stroke-opacity:1;stroke-dasharray:none"
       d="m 580.52021,416.76273 c -0.0684,3.45126 0.18556,7.9196 -0.0116,11.29617"
       id="path5471"
       inkscape:connector-curvature="0"
       sodipodi:nodetypes="cc" />
    <path
       style="fill:none;stroke:#000000;stroke-width:2.42213821000000000;stroke-linecap:round;stroke-linejoin:miter;stroke-miterlimit:4;stroke-opacity:1;stroke-dasharray:none"
       d="m 576.96413,421.21018 c 2.27393,-0.0402 4.16402,-0.1251 6.98823,-0.0629"
       id="path5473"
       inkscape:connector-curvature="0"
       sodipodi:nodetypes="cc" />
    <path
       style="fill:#f9f9f9;fill-opacity:1;fill-rule:nonzero;stroke:#000000;stroke-width:1.31991804;stroke-linecap:round;stroke-linejoin:round;stroke-miterlimit:4;stroke-dasharray:none"
       d="m 560.93134,492.44791 -8.35201,-0.32394 1.48844,-1.36951 c 0.81864,-0.75322 2.39338,-2.03943 3.49943,-2.85823 3.7966,-2.81059 4.60517,-6.299 1.92016,-8.28412 -5.62192,-4.15647 -9.33492,-16.47023 -7.87933,-26.13094 0.99385,-6.59614 3.00209,-10.40113 5.08329,-9.63124 0.6075,0.22473 4.1644,2.37769 7.90422,4.78436 8.88565,5.71814 11.7186,6.86798 16.2229,6.58458 3.76387,-0.23682 5.52867,-1.04353 17.36348,-7.93706 4.40209,-2.56413 6.76216,-3.62666 8.15153,-3.66993 1.81434,-0.0565 1.98826,0.0726 2.40843,1.78699 0.77629,3.16762 0.58661,15.22567 -0.32125,20.42176 -1.30693,7.48018 -2.63392,10.54527 -5.93935,13.71869 -3.98926,3.82994 -3.8966,4.72775 0.95819,9.2841 l 3.79801,3.56453 -8.72879,0 c -4.80084,0 -13.34052,0.0864 -18.97707,0.19195 -5.63655,0.10557 -14.00667,0.0462 -18.60028,-0.13199 l 0,0 z"
       id="path5475"
       inkscape:connector-curvature="0" />
    <path
       style="fill:#f9f9f9;fill-opacity:1;fill-rule:nonzero;stroke:#000000;stroke-width:1.31991804;stroke-linecap:round;stroke-linejoin:round;stroke-miterlimit:4;stroke-dasharray:none"
       d="m 576.41091,451.86988 c -1.86912,-0.57998 -8.44748,-4.60125 -8.44748,-5.16384 0,-1.75135 11.39241,-17.14619 12.68843,-17.14619 1.16047,0 11.59807,15.33496 11.59807,17.03992 0,0.45783 -1.84198,1.75528 -4.35573,3.0681 -3.58864,1.87418 -4.91362,2.29003 -7.52354,2.36127 -1.74229,0.0476 -3.52418,-0.0241 -3.95975,-0.15926 l 0,0 z"
       id="path5477"
       inkscape:connector-curvature="0" />
    <path
       style="fill:none;stroke:#000000;stroke-width:3.36552;stroke-linecap:butt;stroke-linejoin:miter;stroke-miterlimit:4;stroke-opacity:1;stroke-dasharray:none"
       d="m 668.88547,452.98755 c -1.64795,2.69789 -4.56766,6.63758 -6.77954,11.93013 -3.7964,9.08398 -6.49024,23.49134 -1.44527,28.63875 8.47059,0.47098 28.16465,0.11383 39.2486,0.84753 4.7113,-9.61391 -5.31534,-37.63033 -8.56661,-40.94763"
       id="path5485"
       inkscape:connector-curvature="0"
       sodipodi:nodetypes="csccc" />
    <path
       style="fill:none;stroke:#000000;stroke-width:2.24368024;stroke-linecap:butt;stroke-linejoin:miter;stroke-miterlimit:4;stroke-opacity:1;stroke-dasharray:none"
       d="m 668.54077,453.07964 c -3.03095,-2.53722 -6.6444,-18.99685 -2.2237,-25.63809 4.59684,-6.90587 20.89818,-6.37297 26.46209,-0.45377 5.61315,5.97161 3.46142,24.61852 -1.22304,26.65907"
       id="path5487"
       inkscape:connector-curvature="0"
       sodipodi:nodetypes="cssc" />
    <path
       style="fill:none;stroke:#000000;stroke-width:2.24368024;stroke-linecap:butt;stroke-linejoin:miter;stroke-miterlimit:4;stroke-opacity:1;stroke-dasharray:none"
       d="m 668.76315,453.07963 c 4.3046,3.79162 16.36628,4.18612 23.23771,0.68066"
       id="path5489"
       inkscape:connector-curvature="0"
       sodipodi:nodetypes="cc" />
    <path
       style="fill:#f9f9f9;fill-opacity:1;fill-rule:nonzero;stroke:#000000;stroke-width:0.51901865;stroke-linecap:round;stroke-linejoin:round;stroke-miterlimit:4;stroke-dasharray:none"
       d="m 696.47435,492.46864 c -0.0803,-0.0803 -7.95581,-0.25492 -17.50111,-0.38802 -19.83247,-0.27655 -17.64656,0.0751 -18.61113,-2.99376 -0.47038,-1.49654 -0.56607,-2.38806 -0.54314,-5.06044 0.0739,-8.61883 2.94392,-17.83641 8.13231,-26.11881 l 1.64954,-2.63322 1.61417,0.60757 c 0.88779,0.33417 2.65059,0.80271 3.91734,1.04122 4.10519,0.77293 11.85647,0.23608 15.18373,-1.05161 1.06603,-0.41257 5.14411,10.416 7.23135,19.2015 1.58256,6.66121 2.16175,12.7634 1.50253,15.83035 l -0.33467,1.55706 -1.04745,0.0771 c -0.5761,0.0424 -1.11316,0.0114 -1.19347,-0.0689 z"
       id="path5519"
       inkscape:connector-curvature="0" />
    <path
       style="fill:#f9f9f9;fill-opacity:1;fill-rule:nonzero;stroke:#000000;stroke-width:0.51901865;stroke-linecap:round;stroke-linejoin:round;stroke-miterlimit:4;stroke-dasharray:none"
       d="m 676.96284,454.68742 c -2.31565,-0.26915 -4.89739,-1.0787 -6.62414,-2.0771 -1.19009,-0.6881 -1.49064,-1.03038 -2.11151,-2.40461 -2.83947,-6.28482 -3.49327,-16.89964 -1.3051,-21.18882 1.72078,-3.37301 6.02293,-5.22381 12.20023,-5.24858 7.05108,-0.0283 12.36909,2.36487 14.12957,6.35841 1.34394,3.04867 1.92731,7.87013 1.45059,11.98895 -0.61787,5.33836 -1.68833,8.51566 -3.42493,10.16574 -2.06215,1.9594 -8.64203,3.06534 -14.31471,2.40601 l 0,0 z"
       id="path5521"
       inkscape:connector-curvature="0" />
  </g>
</svg>
