<?xml version="1.0" encoding="UTF-8" standalone="no"?>
<!-- Created with Inkscape (http://www.inkscape.org/) -->

<svg
   xmlns:dc="http://purl.org/dc/elements/1.1/"
   xmlns:cc="http://creativecommons.org/ns#"
   xmlns:rdf="http://www.w3.org/1999/02/22-rdf-syntax-ns#"
   xmlns:svg="http://www.w3.org/2000/svg"
   xmlns="http://www.w3.org/2000/svg"
   xmlns:sodipodi="http://sodipodi.sourceforge.net/DTD/sodipodi-0.dtd"
   xmlns:inkscape="http://www.inkscape.org/namespaces/inkscape"
   width="744.09448819"
   height="1052.3622047"
   id="svg2"
   version="1.1"
   inkscape:version="0.48.4 r9939"
   inkscape:export-filename="C:\Users\Marek\Desktop\bitmap.png"
   inkscape:export-xdpi="90"
   inkscape:export-ydpi="90"
   sodipodi:docname="Rysunek.svg">
  <defs
     id="defs4">
    <inkscape:path-effect
       effect="skeletal"
       id="path-effect3807"
       is_visible="true"
       pattern="m 111.29955,-297.98211 c 0,-2.76 2.24,-5 5,-5 2.76,0 5,2.24 5,5 0,2.76 -2.24,5 -5,5 -2.76,0 -5,-2.24 -5,-5 z"
       copytype="single_stretched"
       prop_scale="1"
       scale_y_rel="false"
       spacing="0"
       normal_offset="0"
       tang_offset="0"
       prop_units="false"
       vertical_pattern="false"
       fuse_tolerance="0" />
    <inkscape:path-effect
       effect="skeletal"
       id="path-effect3803"
       is_visible="true"
       pattern="m 111.29955,-297.98211 c 0,-2.76 2.24,-5 5,-5 2.76,0 5,2.24 5,5 0,2.76 -2.24,5 -5,5 -2.76,0 -5,-2.24 -5,-5 z"
       copytype="single_stretched"
       prop_scale="1"
       scale_y_rel="false"
       spacing="0"
       normal_offset="0"
       tang_offset="0"
       prop_units="false"
       vertical_pattern="false"
       fuse_tolerance="0" />
    <inkscape:path-effect
       effect="skeletal"
       id="path-effect3799"
       is_visible="true"
       pattern="m 111.29955,-297.98211 c 0,-2.76 2.24,-5 5,-5 2.76,0 5,2.24 5,5 0,2.76 -2.24,5 -5,5 -2.76,0 -5,-2.24 -5,-5 z"
       copytype="single_stretched"
       prop_scale="1"
       scale_y_rel="false"
       spacing="0"
       normal_offset="0"
       tang_offset="0"
       prop_units="false"
       vertical_pattern="false"
       fuse_tolerance="0" />
    <inkscape:path-effect
       effect="skeletal"
       id="path-effect3791"
       is_visible="true"
       pattern="m 111.29955,-297.98211 c 0,-2.76 2.24,-5 5,-5 2.76,0 5,2.24 5,5 0,2.76 -2.24,5 -5,5 -2.76,0 -5,-2.24 -5,-5 z"
       copytype="single_stretched"
       prop_scale="1"
       scale_y_rel="false"
       spacing="0"
       normal_offset="0"
       tang_offset="0"
       prop_units="false"
       vertical_pattern="false"
       fuse_tolerance="0" />
    <inkscape:path-effect
       effect="skeletal"
       id="path-effect3718"
       is_visible="true"
       pattern="m -72.138598,-56.833084 c 0,-2.76 2.24,-5 5,-5 2.76,0 5,2.24 5,5 0,2.76 -2.24,5 -5,5 -2.76,0 -5,-2.24 -5,-5 z"
       copytype="single_stretched"
       prop_scale="1"
       scale_y_rel="false"
       spacing="0"
       normal_offset="0"
       tang_offset="0"
       prop_units="false"
       vertical_pattern="false"
       fuse_tolerance="0" />
    <inkscape:path-effect
       effect="skeletal"
       id="path-effect3706"
       is_visible="true"
       pattern="m -72.138598,-56.833084 c 0,-2.76 2.24,-5 5,-5 2.76,0 5,2.24 5,5 0,2.76 -2.24,5 -5,5 -2.76,0 -5,-2.24 -5,-5 z"
       copytype="single_stretched"
       prop_scale="1"
       scale_y_rel="false"
       spacing="0"
       normal_offset="0"
       tang_offset="0"
       prop_units="false"
       vertical_pattern="false"
       fuse_tolerance="0" />
    <inkscape:path-effect
       effect="skeletal"
       id="path-effect3581"
       is_visible="true"
       pattern="m -224.66021,-20.763785 c 0,-2.76 2.24,-5 5,-5 2.76,0 5,2.24 5,5 0,2.76 -2.24,5 -5,5 -2.76,0 -5,-2.24 -5,-5 z"
       copytype="single_stretched"
       prop_scale="1"
       scale_y_rel="false"
       spacing="0"
       normal_offset="0"
       tang_offset="0"
       prop_units="false"
       vertical_pattern="false"
       fuse_tolerance="0" />
    <inkscape:path-effect
       effect="skeletal"
       id="path-effect3577"
       is_visible="true"
       pattern="m -224.66021,-20.763785 c 0,-2.76 2.24,-5 5,-5 2.76,0 5,2.24 5,5 0,2.76 -2.24,5 -5,5 -2.76,0 -5,-2.24 -5,-5 z"
       copytype="single_stretched"
       prop_scale="1"
       scale_y_rel="false"
       spacing="0"
       normal_offset="0"
       tang_offset="0"
       prop_units="false"
       vertical_pattern="false"
       fuse_tolerance="0" />
    <inkscape:path-effect
       effect="skeletal"
       id="path-effect3573"
       is_visible="true"
       pattern="m -224.66021,-20.763785 c 0,-2.76 2.24,-5 5,-5 2.76,0 5,2.24 5,5 0,2.76 -2.24,5 -5,5 -2.76,0 -5,-2.24 -5,-5 z"
       copytype="single_stretched"
       prop_scale="1"
       scale_y_rel="false"
       spacing="0"
       normal_offset="0"
       tang_offset="0"
       prop_units="false"
       vertical_pattern="false"
       fuse_tolerance="0" />
    <inkscape:path-effect
       effect="skeletal"
       id="path-effect3569"
       is_visible="true"
       pattern="m -224.66021,-20.763785 c 0,-2.76 2.24,-5 5,-5 2.76,0 5,2.24 5,5 0,2.76 -2.24,5 -5,5 -2.76,0 -5,-2.24 -5,-5 z"
       copytype="single_stretched"
       prop_scale="1"
       scale_y_rel="false"
       spacing="0"
       normal_offset="0"
       tang_offset="0"
       prop_units="false"
       vertical_pattern="false"
       fuse_tolerance="0" />
    <inkscape:path-effect
       effect="skeletal"
       id="path-effect3448"
       is_visible="true"
       pattern="m -159.73547,54.466468 c 0,-2.76 2.24,-5 5,-5 2.76,0 5,2.24 5,5 0,2.76 -2.24,5 -5,5 -2.76,0 -5,-2.24 -5,-5 z"
       copytype="single_stretched"
       prop_scale="1"
       scale_y_rel="false"
       spacing="0"
       normal_offset="0"
       tang_offset="0"
       prop_units="false"
       vertical_pattern="false"
       fuse_tolerance="0" />
    <inkscape:path-effect
       effect="skeletal"
       id="path-effect3444"
       is_visible="true"
       pattern="m -159.73547,54.466468 c 0,-2.76 2.24,-5 5,-5 2.76,0 5,2.24 5,5 0,2.76 -2.24,5 -5,5 -2.76,0 -5,-2.24 -5,-5 z"
       copytype="single_stretched"
       prop_scale="1"
       scale_y_rel="false"
       spacing="0"
       normal_offset="0"
       tang_offset="0"
       prop_units="false"
       vertical_pattern="false"
       fuse_tolerance="0" />
    <inkscape:path-effect
       effect="skeletal"
       id="path-effect3399"
       is_visible="true"
       pattern="m -92.749627,226.56855 c 0,-2.76 2.24,-5 5,-5 2.76,0 5,2.24 5,5 0,2.76 -2.24,5 -5,5 -2.76,0 -5,-2.24 -5,-5 z"
       copytype="single_stretched"
       prop_scale="1"
       scale_y_rel="false"
       spacing="0"
       normal_offset="0"
       tang_offset="0"
       prop_units="false"
       vertical_pattern="false"
       fuse_tolerance="0" />
    <inkscape:path-effect
       effect="skeletal"
       id="path-effect3395"
       is_visible="true"
       pattern="m -94.925303,225.48071 c 0,-2.76 2.24,-5 5,-5 2.76,0 5,2.24 5,5 0,2.76 -2.24,5 -5,5 -2.76,0 -5,-2.24 -5,-5 z"
       copytype="single_stretched"
       prop_scale="1"
       scale_y_rel="false"
       spacing="0"
       normal_offset="0"
       tang_offset="0"
       prop_units="false"
       vertical_pattern="false"
       fuse_tolerance="0" />
    <inkscape:path-effect
       effect="skeletal"
       id="path-effect3391"
       is_visible="true"
       pattern="m -92.749627,226.56855 c 0,-2.76 2.24,-5 5,-5 2.76,0 5,2.24 5,5 0,2.76 -2.24,5 -5,5 -2.76,0 -5,-2.24 -5,-5 z"
       copytype="single_stretched"
       prop_scale="1"
       scale_y_rel="false"
       spacing="0"
       normal_offset="0"
       tang_offset="0"
       prop_units="false"
       vertical_pattern="false"
       fuse_tolerance="0" />
    <inkscape:path-effect
       effect="skeletal"
       id="path-effect3306"
       is_visible="true"
       pattern="m -34.008196,237.90462 c 0,-2.76 2.24,-5 5,-5 2.76,0 5,2.24 5,5 0,2.76 -2.24,5 -5,5 -2.76,0 -5,-2.24 -5,-5 z"
       copytype="single_stretched"
       prop_scale="1"
       scale_y_rel="false"
       spacing="0"
       normal_offset="0"
       tang_offset="0"
       prop_units="false"
       vertical_pattern="false"
       fuse_tolerance="0" />
    <inkscape:path-effect
       effect="skeletal"
       id="path-effect3250"
       is_visible="true"
       pattern="m -34.008196,237.90462 c 0,-2.76 2.24,-5 5,-5 2.76,0 5,2.24 5,5 0,2.76 -2.24,5 -5,5 -2.76,0 -5,-2.24 -5,-5 z"
       copytype="single_stretched"
       prop_scale="1"
       scale_y_rel="false"
       spacing="0"
       normal_offset="0"
       tang_offset="0"
       prop_units="false"
       vertical_pattern="false"
       fuse_tolerance="0" />
    <inkscape:path-effect
       effect="skeletal"
       id="path-effect3112"
       is_visible="true"
       pattern="M 0,5 C 0,2.24 2.24,0 5,0 7.76,0 10,2.24 10,5 10,7.76 7.76,10 5,10 2.24,10 0,7.76 0,5 z"
       copytype="single_stretched"
       prop_scale="1"
       scale_y_rel="false"
       spacing="0"
       normal_offset="0"
       tang_offset="0"
       prop_units="false"
       vertical_pattern="false"
       fuse_tolerance="0" />
    <inkscape:path-effect
       effect="skeletal"
       id="path-effect3108"
       is_visible="true"
       pattern="M 0,5 C 0,2.24 2.24,0 5,0 7.76,0 10,2.24 10,5 10,7.76 7.76,10 5,10 2.24,10 0,7.76 0,5 z"
       copytype="single_stretched"
       prop_scale="1"
       scale_y_rel="false"
       spacing="0"
       normal_offset="0"
       tang_offset="0"
       prop_units="false"
       vertical_pattern="false"
       fuse_tolerance="0" />
    <inkscape:path-effect
       effect="skeletal"
       id="path-effect3104"
       is_visible="true"
       pattern="M 0,5 C 0,2.24 2.24,0 5,0 7.76,0 10,2.24 10,5 10,7.76 7.76,10 5,10 2.24,10 0,7.76 0,5 z"
       copytype="single_stretched"
       prop_scale="1"
       scale_y_rel="false"
       spacing="0"
       normal_offset="0"
       tang_offset="0"
       prop_units="false"
       vertical_pattern="false"
       fuse_tolerance="0" />
    <inkscape:path-effect
       effect="skeletal"
       id="path-effect3100"
       is_visible="true"
       pattern="M 0,0 0,10 10,5 z"
       copytype="single_stretched"
       prop_scale="1"
       scale_y_rel="false"
       spacing="0"
       normal_offset="0"
       tang_offset="0"
       prop_units="false"
       vertical_pattern="false"
       fuse_tolerance="0" />
    <inkscape:path-effect
       effect="spiro"
       id="path-effect3096"
       is_visible="true" />
    <inkscape:path-effect
       effect="spiro"
       id="path-effect3092"
       is_visible="true" />
    <inkscape:path-effect
       effect="skeletal"
       id="path-effect3250-1"
       is_visible="true"
       pattern="m 90.309873,235.93328 c 0,-2.76 2.24,-5 5,-5 2.76,0 4.999997,2.24 4.999997,5 0,2.76 -2.239997,5 -4.999997,5 -2.76,0 -5,-2.24 -5,-5 z"
       copytype="single_stretched"
       prop_scale="1"
       scale_y_rel="false"
       spacing="0"
       normal_offset="0"
       tang_offset="0"
       prop_units="false"
       vertical_pattern="false"
       fuse_tolerance="0" />
    <inkscape:path-effect
       effect="skeletal"
       id="path-effect3250-4"
       is_visible="true"
       pattern="m -290.96169,244.78357 c 0,-2.76 2.24,-5 5,-5 2.76,0 5,2.24 5,5 0,2.76001 -2.24,5.00001 -5,5.00001 -2.76,0 -5,-2.24 -5,-5.00001 z"
       copytype="single_stretched"
       prop_scale="1"
       scale_y_rel="false"
       spacing="0"
       normal_offset="0"
       tang_offset="0"
       prop_units="false"
       vertical_pattern="false"
       fuse_tolerance="0" />
    <inkscape:path-effect
       effect="skeletal"
       id="path-effect3250-4-9"
       is_visible="true"
       pattern="m -160.96819,238.54715 c 0,-2.76 2.24,-5 5,-5 2.76,0 5,2.24 5,5 0,2.76001 -2.24,5.00001 -5,5.00001 -2.76,0 -5,-2.24 -5,-5.00001 z"
       copytype="single_stretched"
       prop_scale="1"
       scale_y_rel="false"
       spacing="0"
       normal_offset="0"
       tang_offset="0"
       prop_units="false"
       vertical_pattern="false"
       fuse_tolerance="0" />
    <inkscape:path-effect
       effect="skeletal"
       id="path-effect3250-4-9-8"
       is_visible="true"
       pattern="m 215.81873,233.70308 c 0,-2.76 2.24,-5 5,-5 2.76,0 5,2.24 5,5 0,2.76001 -2.24,5.00001 -5,5.00001 -2.76,0 -5,-2.24 -5,-5.00001 z"
       copytype="single_stretched"
       prop_scale="1"
       scale_y_rel="false"
       spacing="0"
       normal_offset="0"
       tang_offset="0"
       prop_units="false"
       vertical_pattern="false"
       fuse_tolerance="0" />
    <inkscape:path-effect
       effect="skeletal"
       id="path-effect3250-4-9-8-2"
       is_visible="true"
       pattern="m 331.24048,232.67253 c 0,-2.76 2.24,-5 5,-5 2.76,0 5,2.24 5,5 0,2.76001 -2.24,5.00001 -5,5.00001 -2.76,0 -5,-2.24 -5,-5.00001 z"
       copytype="single_stretched"
       prop_scale="1"
       scale_y_rel="false"
       spacing="0"
       normal_offset="0"
       tang_offset="0"
       prop_units="false"
       vertical_pattern="false"
       fuse_tolerance="0" />
  </defs>
  <sodipodi:namedview
     id="base"
     pagecolor="#ffffff"
     bordercolor="#666666"
     borderopacity="1.0"
     inkscape:pageopacity="0"
     inkscape:pageshadow="2"
     inkscape:zoom="1.6672882"
     inkscape:cx="50.333609"
     inkscape:cy="686.09876"
     inkscape:document-units="px"
     inkscape:current-layer="layer1"
     showgrid="false"
     inkscape:window-width="996"
     inkscape:window-height="657"
     inkscape:window-x="3"
     inkscape:window-y="9"
     inkscape:window-maximized="0" />
  <metadata
     id="metadata7">
    <rdf:RDF>
      <cc:Work
         rdf:about="">
        <dc:format>image/svg+xml</dc:format>
        <dc:type
           rdf:resource="http://purl.org/dc/dcmitype/StillImage" />
        <dc:title></dc:title>
      </cc:Work>
    </rdf:RDF>
  </metadata>
  <g
     inkscape:label="Layer 1"
     inkscape:groupmode="layer"
     id="layer1">
    <path
       style="fill:#000000;fill-rule:evenodd;stroke:none"
       d="m 288.79112,339.44223 c 0.31567,-0.005 0.66566,0.8195 0.8577,2.45043 0.19204,1.63093 0.18182,4.07842 -0.21863,7.13377 -0.39886,3.08372 -1.18547,6.82241 -2.33806,11.04948 -0.92109,3.38312 -2.06499,7.10508 -3.37191,11.12203 -1.30693,4.01695 -2.77852,8.32803 -4.25141,12.91903 -1.13317,3.55375 -2.29772,7.26537 -3.32452,11.12198 -1.0268,3.85662 -1.91594,7.85806 -2.42606,12.00118 -0.39792,3.25264 -0.58569,6.53161 -0.23034,9.7115 0.3138,2.73224 0.96246,5.40315 2.18203,7.68181 1.40772,2.71664 3.40983,5.22505 5.84472,7.2947 2.37337,2.03381 5.23889,3.68036 8.36416,4.97332 6.54045,2.72694 14.16604,3.67312 22.04066,3.53121 0.73458,-0.0176 1.47043,-0.0454 2.20716,-0.0835 7.28084,-0.37695 14.36622,-1.75239 20.94691,-3.9901 6.50537,-2.29598 12.4462,-5.09796 16.57596,-9.22772 1.14026,-0.86721 1.73001,-2.84677 2.24586,-5.027 0.59471,-3.06218 0.43598,-6.40666 0.12085,-9.81465 0,0 0,0 0,-10e-6 -0.4786,-4.88236 -1.42543,-9.58876 -2.55244,-14.103 -1.12701,-4.51424 -2.43418,-8.83613 -3.71981,-12.94205 -3.43434,-10.90568 -6.94249,-20.10071 -9.65278,-27.31095 -2.06462,-5.49114 -3.69357,-9.81783 -4.69388,-12.82873 -1.00032,-3.01091 -1.36845,-4.70818 -0.96431,-4.91025 0.40414,-0.20207 1.55619,1.10446 3.31385,3.76836 1.75767,2.66389 4.1176,6.68753 6.87539,11.93605 3.62042,6.88847 7.98252,15.88725 12.21372,26.86078 1.58694,4.09303 3.19009,8.49484 4.60881,13.23022 1.41872,4.73539 2.65301,9.8046 3.41516,15.23562 10e-6,1e-5 10e-6,1e-5 10e-6,1e-5 0.55045,3.7869 0.82179,7.95253 0.18344,12.38391 -0.39196,3.33668 -1.74505,7.02731 -4.68013,10.23543 -5.59923,5.59923 -12.75913,9.34682 -20.05634,11.83751 -7.43815,2.62397 -15.44309,4.23257 -23.66551,4.65461 -0.83202,0.0427 -1.663,0.0731 -2.49252,0.0915 -8.89001,0.24283 -17.90417,-1.04823 -26.05999,-4.47267 -3.94588,-1.6668 -7.65959,-3.92538 -10.89085,-6.76811 -3.33341,-2.94927 -6.01177,-6.49771 -7.89821,-10.36937 -1.74755,-3.65558 -2.59735,-7.44745 -2.84132,-11.07495 -0.28814,-4.15708 0.0604,-8.10439 0.69078,-11.77595 0.7943,-4.64059 1.9586,-8.96199 3.25541,-13.00514 1.29681,-4.04316 2.72627,-7.80825 4.12352,-11.32828 1.81246,-4.59313 3.61083,-8.79793 5.24955,-12.65835 1.63872,-3.86042 3.11959,-7.3761 4.39614,-10.54865 1.59387,-3.96575 2.84764,-7.36482 3.75741,-10.17731 0.89882,-2.79869 1.47547,-4.97827 1.87538,-6.47947 0.39992,-1.5012 0.66877,-2.3232 0.98444,-2.32817 z"
       id="path3248"
       inkscape:path-effect="#path-effect3250"
       inkscape:original-d="m 288.79112,339.44223 c 0.3495,22.22019 -28.69438,64.50749 -17.30626,87.28373 13.87745,27.7549 66.41351,20.87022 83.5215,3.76223 14.64866,-14.64865 -17.03464,-79.21605 -22.57338,-90.29351"
       inkscape:connector-curvature="0" />
    <path
       style="fill:#000000;fill-rule:evenodd;stroke:none"
       d="m 289.12818,339.55555 c -0.32828,0.38387 -1.74902,-0.14056 -4.02254,-1.66243 -1.13676,-0.76093 -2.48272,-1.77648 -3.96812,-3.09365 -1.4854,-1.31717 -3.11127,-2.93583 -4.76327,-4.93051 -2.39473,-2.88682 -4.85604,-6.61625 -6.49554,-11.41869 -1.15347,-3.40617 -1.79384,-7.32589 -1.48024,-11.53457 0.28333,-3.58176 1.25315,-7.2519 2.92589,-10.73935 1.5957,-3.27946 3.71349,-6.38168 6.26432,-9.2102 2.55083,-2.82852 5.5345,-5.38302 8.79222,-7.57773 6.23416,-4.26322 13.58853,-7.50476 21.54069,-9.23349 1.74913,-0.39341 3.54421,-0.71151 5.37386,-0.93737 5.70379,-0.70407 11.52218,-0.47114 17.07101,0.93448 3.47322,0.88907 6.82942,2.347 9.83449,4.38549 3.07971,2.10644 5.63186,4.82132 7.50523,7.89439 2.1627,3.61475 3.3333,7.46339 3.79953,11.15952 0.63232,5.01663 0.20506,9.69606 -0.63229,13.87375 -1.22435,6.09219 -3.12281,11.33406 -5.11395,15.78432 -1.99113,4.45027 -4.07812,8.11081 -5.92468,11.01595 -1.84656,2.90515 -3.4586,5.05573 -4.6741,6.44122 -1.21549,1.38548 -2.03943,2.00565 -2.39764,1.8005 -0.35821,-0.20515 -0.23082,-1.22541 0.30124,-2.97069 0.53206,-1.74528 1.47385,-4.21689 2.65978,-7.33919 1.18593,-3.12229 2.62182,-6.89518 3.97144,-11.24883 1.34961,-4.35366 2.61592,-9.28712 3.22349,-14.74491 0.40909,-3.68096 0.53334,-7.53144 -0.19136,-11.24814 -0.52627,-2.69126 -1.443,-5.33943 -2.94002,-7.54093 -1.24292,-1.87949 -2.95258,-3.55531 -4.95406,-4.84394 -1.97578,-1.28955 -4.33768,-2.21887 -6.88376,-2.85007 -4.14547,-1.04282 -8.71504,-1.13288 -13.4221,-0.54823 -1.50991,0.18754 -3.01478,0.44111 -4.50343,0.74507 -6.73273,1.43419 -12.99223,4.04187 -18.33655,7.46506 -2.75337,1.79578 -5.2764,3.77315 -7.42144,5.90513 -2.14503,2.13198 -3.91188,4.41871 -5.22004,6.82949 -1.38531,2.50495 -2.30465,5.12816 -2.70402,7.68253 -0.48708,2.98773 -0.2812,5.98531 0.3169,8.71524 0.84266,3.89299 2.51643,7.31682 4.18944,10.19973 1.16209,1.99684 2.34738,3.73079 3.42554,5.23427 1.07816,1.50349 2.05018,2.77627 2.83201,3.83438 1.56368,2.11622 2.35035,3.38853 2.02207,3.7724 z"
       id="path3304"
       inkscape:path-effect="#path-effect3306"
       inkscape:original-d="m 289.12818,339.55555 c -71.18602,-60.87772 109.56039,-112.15795 43.63487,2.95163"
       inkscape:connector-curvature="0" />
    <path
       style="fill:#000000;fill-rule:evenodd;stroke:none"
       d="m 413.10919,337.47088 c 0.31567,-0.005 0.66566,0.8195 0.8577,2.45043 0.19204,1.63093 0.18182,4.07842 -0.21863,7.13377 -0.39886,3.08372 -1.18547,6.82241 -2.33806,11.04948 -0.92109,3.38312 -2.06499,7.10508 -3.37191,11.12203 -1.30693,4.01695 -2.77852,8.32803 -4.25141,12.91903 -1.13317,3.55375 -2.29773,7.26537 -3.32452,11.12198 -1.0268,3.85662 -1.91594,7.85806 -2.42606,12.00118 -0.39792,3.25264 -0.58569,6.53161 -0.23034,9.7115 0.3138,2.73224 0.96246,5.40315 2.18203,7.68181 1.40772,2.71664 3.40983,5.22505 5.84471,7.2947 2.37338,2.03381 5.2389,3.68036 8.36417,4.97332 6.54045,2.72694 14.16604,3.67312 22.04066,3.53121 0.73459,-0.0176 1.47045,-0.0454 2.2072,-0.0835 7.28082,-0.37695 14.36619,-1.75239 20.94687,-3.9901 6.50537,-2.29598 12.4462,-5.09796 16.57596,-9.22772 1.14026,-0.86722 1.73001,-2.84677 2.24586,-5.027 0.59471,-3.06218 0.43598,-6.40666 0.12085,-9.81465 0,0 0,0 0,-1e-5 -0.4786,-4.88236 -1.42543,-9.58876 -2.55244,-14.103 -1.12701,-4.51424 -2.43418,-8.83613 -3.71981,-12.94205 -3.43434,-10.90568 -6.94249,-20.10071 -9.65278,-27.31095 -2.06462,-5.49114 -3.69357,-9.81783 -4.69388,-12.82873 -1.00032,-3.01091 -1.36845,-4.70818 -0.96431,-4.91025 0.40414,-0.20207 1.55619,1.10446 3.31385,3.76836 1.75767,2.66389 4.1176,6.68753 6.87539,11.93605 3.62042,6.88846 7.98252,15.88725 12.21372,26.86078 1.58694,4.09303 3.1901,8.49484 4.60881,13.23022 1.41872,4.73539 2.65301,9.8046 3.41517,15.23562 0,10e-6 0,10e-6 0,10e-6 0.55045,3.7869 0.8218,7.95253 0.18344,12.38391 -0.39196,3.33668 -1.74505,7.02731 -4.68013,10.23543 -5.59923,5.59923 -12.75913,9.34682 -20.05634,11.83751 -7.43814,2.62396 -15.44306,4.23256 -23.66547,4.65461 -0.83203,0.0427 -1.66302,0.0731 -2.49256,0.0915 -8.89001,0.24283 -17.90417,-1.04823 -26.05999,-4.47267 -3.94588,-1.6668 -7.65959,-3.92538 -10.89085,-6.76811 -3.33341,-2.94927 -6.01177,-6.49771 -7.89821,-10.36937 -1.74755,-3.65558 -2.59735,-7.44745 -2.84132,-11.07495 -0.28814,-4.15708 0.0604,-8.10439 0.69078,-11.77595 0.79431,-4.64059 1.9586,-8.96199 3.25541,-13.00514 1.29681,-4.04316 2.72627,-7.80825 4.12352,-11.32828 1.81246,-4.59313 3.61083,-8.79793 5.24955,-12.65835 1.63872,-3.86042 3.11959,-7.3761 4.39614,-10.54865 1.59387,-3.96575 2.84764,-7.36482 3.75741,-10.17731 0.89882,-2.79869 1.47547,-4.97827 1.87538,-6.47947 0.39992,-1.5012 0.66877,-2.3232 0.98444,-2.32817 z"
       id="path3248-7"
       inkscape:path-effect="#path-effect3250-1"
       inkscape:original-d="m 413.10919,337.47088 c 0.3495,22.22019 -28.69438,64.50749 -17.30626,87.28373 13.87745,27.7549 66.41351,20.87022 83.5215,3.76223 14.64866,-14.64865 -17.03464,-79.21605 -22.57338,-90.29351"
       inkscape:connector-curvature="0" />
    <path
       style="fill:#000000;fill-rule:evenodd;stroke:none"
       d="m 413.69515,339.41201 c -0.17371,0.147 -0.53675,0.0726 -1.06589,-0.24655 -0.52914,-0.31915 -1.22389,-0.88474 -2.01232,-1.73786 -0.78843,-0.85312 -1.6698,-1.99601 -2.53262,-3.45747 -0.86283,-1.46147 -1.70621,-3.24383 -2.39141,-5.32905 -0.64857,-1.96873 -1.17734,-4.19332 -1.52042,-6.63295 -0.34308,-2.43963 -0.49936,-5.09467 -0.44294,-7.88865 0,0 0,0 0,0 0.087,-4.52434 0.65633,-9.47202 1.77633,-14.67874 1.12,-5.20672 2.79236,-10.67143 4.91446,-16.20758 3.05118,-8.05263 7.06494,-16.55452 12.54821,-24.77292 1.55926,-2.38003 3.3985,-4.95719 5.85953,-7.39044 0.57924,-0.66302 1.62451,-1.52139 3.23863,-2.36877 0,0 10e-6,-1e-5 10e-6,-1e-5 0.50036,-0.32932 1.46687,-0.56605 2.89145,-0.64491 0.14578,7.3e-4 0.29092,0.008 0.43536,0.0203 1.24044,0.11004 2.42752,0.66551 3.52247,1.66 6.45511,6.49024 11.81696,13.65765 16.00131,20.96107 4.18436,7.30341 7.19203,14.73807 9.16179,21.82103 1.26749,4.5286 2.07495,8.95737 2.4585,13.13435 0.38355,4.17697 0.34446,8.10207 -0.0112,11.66871 -0.3842,3.83828 -1.16445,7.23666 -2.09925,10.11042 -0.93481,2.87376 -2.02213,5.22592 -3.0511,7.05307 -1.02896,1.82715 -1.99763,3.13273 -2.75586,3.94557 -0.75824,0.81284 -1.30434,1.13588 -1.57645,0.98136 -0.27211,-0.15452 -0.25984,-0.77881 -0.0471,-1.82798 0.21271,-1.04917 0.62333,-2.52593 1.08364,-4.41851 0.46032,-1.89257 0.96826,-4.20428 1.34613,-6.91003 0.37786,-2.70574 0.62409,-5.80853 0.5588,-9.22158 -0.0582,-3.19539 -0.386,-6.66853 -1.06138,-10.35583 -0.67538,-3.68729 -1.69925,-7.58926 -3.07948,-11.60893 -2.18594,-6.33388 -5.22369,-12.94554 -9.2209,-19.46132 -3.99721,-6.51578 -8.95302,-12.93297 -14.80052,-18.8226 0.86104,0.75912 1.72675,1.17642 2.63614,1.25542 0.10589,0.009 0.21236,0.0138 0.31947,0.0138 0.94566,-0.0875 1.44563,-0.16261 1.51258,-0.28992 0,0 0,0 10e-6,-1e-5 0.1817,-0.17975 0.0415,0.0522 -0.50743,0.48248 -1.61757,1.51939 -3.04588,3.5685 -4.5951,5.77917 -5.08958,7.39598 -9.03424,15.18073 -12.2836,22.6508 -2.21299,5.14423 -4.07062,10.09875 -5.45864,14.77815 -1.38803,4.67939 -2.30788,9.08441 -2.81274,13.14057 0,0 0,0 0,1e-5 -0.30783,2.48625 -0.46696,4.82122 -0.47351,6.97359 -0.007,2.15236 0.13852,4.12274 0.39258,5.90108 0.26546,1.86129 0.64806,3.51753 1.05892,4.94411 0.41086,1.42657 0.84908,2.62578 1.22331,3.6081 0.74845,1.96463 1.20766,3.09537 0.86024,3.38938 z"
       id="path3389"
       inkscape:path-effect="#path-effect3391"
       inkscape:original-d="m 413.69515,339.41201 c -22.04113,-26.04544 17.3964,-90.45596 21.67431,-86.15118 20.89186,21.02306 37.46273,58.34791 21.6743,86.15118"
       inkscape:connector-curvature="0" />
    <path
       style="fill:#000000;fill-rule:evenodd;stroke:none"
       d="m 434.83659,287.12861 c 0.68378,0.0924 1.25636,0.72282 1.74513,1.74594 0.48878,1.02311 0.89871,2.43916 1.2732,4.15393 0.3745,1.71476 0.71626,3.73053 1.02573,5.98398 0.30947,2.25345 0.58627,4.74741 0.77052,7.40953 0.029,0.41882 0.0552,0.83552 0.0783,1.24967 0,0 0,0 0,0 0.1496,2.48627 0.22255,4.91174 0.15616,7.15525 -0.0664,2.24352 -0.27281,4.30148 -0.61671,6.03203 -0.3439,1.73055 -0.82272,3.13114 -1.38261,4.0873 -0.55988,0.95617 -1.19638,1.46808 -1.85924,1.46808 -0.66286,0 -1.29187,-0.5058 -1.88752,-1.39547 -0.59566,-0.88967 -1.16239,-2.16271 -1.70792,-3.7436 -0.54553,-1.58089 -1.07258,-3.47197 -1.53985,-5.629 -0.46727,-2.15703 -0.87431,-4.58365 -1.11316,-7.22001 0,0 0,-1e-5 0,-1e-5 -0.0405,-0.42476 -0.077,-0.85458 -0.10915,-1.28901 -0.20436,-2.76137 -0.20726,-5.45086 -0.008,-7.90994 0.19966,-2.45908 0.60135,-4.68468 1.14004,-6.52458 0.53868,-1.83991 1.21103,-3.29244 1.91531,-4.24886 0.70428,-0.95643 1.4356,-1.41765 2.11938,-1.32523 z"
       id="path3393"
       inkscape:path-effect="#path-effect3395"
       inkscape:original-d="m 434.83659,287.12861 c -1.80743,13.37206 1.19048,29.32027 1.19048,39.28571"
       inkscape:connector-curvature="0" />
    <path
       style="fill:#000000;fill-rule:evenodd;stroke:none"
       d="m 421.53608,306.07359 c -0.0901,-1.37706 1.29001,-2.72133 3.60307,-3.77991 2.31305,-1.05858 5.56733,-1.83368 9.22631,-2.02251 3.65897,-0.18884 7.02495,0.25816 9.4526,1.11638 2.42766,0.85823 3.9085,2.11557 3.9085,3.49557 0,1.38 -1.45659,2.62214 -3.77322,3.57118 -2.31664,0.94904 -5.50126,1.61735 -9.07014,1.80324 -3.56889,0.18589 -6.85838,-0.15909 -9.28246,-0.90778 -2.42407,-0.74868 -3.97457,-1.89911 -4.06466,-3.27617 z"
       id="path3397"
       inkscape:path-effect="#path-effect3399"
       inkscape:original-d="m 421.53608,306.07359 c 9.1974,-0.60173 16.22472,-1.19047 26.19048,-1.19047"
       inkscape:connector-curvature="0" />
    <path
       style="fill:#000000;fill-rule:evenodd;stroke:none"
       d="m 28.559573,342.33245 c 0.315274,-0.005 0.666671,0.84915 0.853724,2.53689 0.187054,1.68775 0.163435,4.21948 -0.266115,7.38019 -0.428239,3.1909 -1.260384,7.05892 -2.473678,11.43339 -0.969777,3.50155 -2.171633,7.35399 -3.543467,11.51281 -1.371833,4.15882 -2.915353,8.62314 -4.460506,13.37991 -1.188285,3.6799 -2.409474,7.52492 -3.487,11.52284 -1.077526,3.99791 -2.011483,8.14856 -2.549783,12.44993 -0.419797,3.37526 -0.619185,6.78223 -0.250066,10.09043 0.325644,2.84433 1.00671,5.62944 2.286687,8.00986 1.478816,2.83745 3.583449,5.45397 6.140259,7.61325 2.498786,2.1262 5.509483,3.84356 8.789391,5.19069 6.872729,2.84291 14.86463,3.82865 23.110902,3.67925 0.773968,-0.0184 1.549282,-0.0475 2.325549,-0.0875 7.618739,-0.39261 15.032617,-1.8217 21.922109,-4.14791 6.805686,-2.38187 13.033337,-5.29804 17.38368,-9.61445 1.219694,-0.9388 1.852929,-3.01931 2.386833,-5.29503 0.620621,-3.19143 0.452474,-6.66879 0.119108,-10.20447 0,0 -10e-7,0 -10e-7,0 -0.505384,-5.06793 -1.499875,-9.94949 -2.68251,-14.62914 -1.182634,-4.67965 -2.553394,-9.15719 -3.901605,-13.40932 -3.603375,-11.30165 -7.284413,-20.82299 -10.133877,-28.28624 -2.171362,-5.68578 -3.888518,-10.16336 -4.950028,-13.27703 -1.06151,-3.11367 -1.463702,-4.86568 -1.060432,-5.06887 0.40327,-0.20319 1.587714,1.15589 3.405146,3.92053 1.817431,2.76464 4.264374,6.93731 7.128055,12.37886 3.758156,7.13944 8.292414,16.46297 12.693289,27.83231 1.64961,4.2388 3.316713,8.79645 4.791753,13.69847 1.47505,4.90201 2.75804,10.14865 3.54843,15.76893 0,0 0,0 1e-5,10e-6 0.57019,3.91736 0.85087,8.22164 0.18444,12.79186 -0.41497,3.4466 -1.81877,7.24287 -4.84343,10.51591 -5.823354,5.77936 -13.269034,9.63591 -20.857993,12.20781 -7.741557,2.70891 -16.068357,4.36894 -24.620538,4.80597 -0.871375,0.0445 -1.741635,0.0762 -2.610343,0.0953 -9.252073,0.24911 -18.623736,-1.07856 -27.102966,-4.61227 -4.095406,-1.71629 -7.953005,-4.04151 -11.311561,-6.97269 -3.456511,-3.03277 -6.2418099,-6.68894 -8.2064421,-10.68562 -1.8146145,-3.76136 -2.7004148,-7.67358 -2.9573562,-11.42098 -0.302632,-4.29241 0.057997,-8.37233 0.7115269,-12.16924 0.8240328,-4.80199 2.0342264,-9.27443 3.3824666,-13.45981 1.3482402,-4.18538 2.8346638,-8.08386 4.2870978,-11.7295 1.884962,-4.75862 3.754989,-9.1159 5.458096,-13.11723 1.703107,-4.00133 3.24118,-7.64631 4.565622,-10.93612 1.653487,-4.11179 2.95152,-7.6382 3.889594,-10.55627 0.92656,-2.90264 1.515772,-5.16471 1.919865,-6.72188 0.404094,-1.55718 0.670789,-2.40884 0.986064,-2.41384 z"
       id="path3248-0"
       inkscape:path-effect="#path-effect3250-4"
       inkscape:original-d="m 28.559568,342.33245 c 0.364855,23.01874 -29.9550242,66.82578 -18.066589,90.42055 14.487141,28.75234 69.331274,21.62024 87.190871,3.89744 15.29222,-15.1751 -17.783025,-82.06293 -23.565099,-93.53849"
       inkscape:connector-curvature="0"
       inkscape:export-filename="C:\Users\Marek\Documents\NetBeansProjects\GroovyJavaDemo\src\org\icons\whiteKnight.svg.png"
       inkscape:export-xdpi="90"
       inkscape:export-ydpi="90" />
    <path
       style="fill:#000000;fill-rule:evenodd;stroke:none"
       d="m 28.19027,343.49532 c -0.497634,0.17521 -1.63898,-1.44572 -3.175536,-4.70651 -0.768279,-1.6304 -1.630609,-3.67283 -2.513233,-6.12041 -0.882623,-2.44758 -1.786389,-5.30041 -2.593372,-8.55909 -0.566579,-2.27656 -1.085259,-4.76505 -1.46049,-7.46346 -0.375232,-2.69842 -0.607317,-5.60696 -0.559591,-8.71502 0.05035,-3.97865 0.634103,-8.36231 2.397184,-12.81185 1.345397,-3.36102 3.463367,-6.63182 6.45422,-9.36074 2.727419,-2.44034 5.993903,-4.29482 9.520586,-5.46001 3.629626,-1.19967 7.448689,-1.77852 11.247551,-1.86227 4.143377,-0.0904 8.330648,0.28737 12.49299,1.05203 4.162341,0.76466 8.299563,1.91594 12.338389,3.33034 5.207072,1.79899 10.368984,4.04423 15.402873,6.70508 3.152657,1.66646 6.191839,3.46171 9.108182,5.3578 7.461447,4.82621 14.261957,10.44369 19.825997,16.79835 2.55177,2.91117 4.85408,6.05457 6.73197,9.42055 1.70759,3.03021 3.0329,6.36028 3.71151,9.87175 0.6429,3.30685 0.52798,6.76402 -0.41518,10.02706 -1.11497,3.60816 -3.134,6.57835 -5.51854,8.84372 -1.86513,1.59993 -3.7062,2.2566 -5.19415,2.32757 -2.06926,0.24244 -3.89909,0.11577 -5.48679,-0.11054 -4.79248,-0.63351 -8.88618,-1.82996 -12.502362,-2.84752 -2.587571,-0.71924 -4.960731,-1.40947 -7.138075,-2.01252 -2.177344,-0.60306 -4.15878,-1.12015 -5.94725,-1.54527 -1.766913,-0.39898 -3.316203,-0.75507 -4.654983,-1.00838 -1.33878,-0.25332 -2.468251,-0.40922 -3.393771,-0.51362 -0.92552,-0.1044 -1.647785,-0.16212 -2.155944,-0.24755 -0.50816,-0.0854 -0.802172,-0.20205 -0.849809,-0.38949 -0.04764,-0.18744 0.154016,-0.44114 0.620277,-0.72691 0.466261,-0.28577 1.198735,-0.60058 2.198086,-0.86668 0.999352,-0.2661 2.267243,-0.47891 3.76497,-0.57516 1.497727,-0.0962 3.226798,-0.0706 5.085187,0.0509 1.935143,0.10945 4.074683,0.32355 6.387065,0.63212 2.312382,0.30856 4.797314,0.71277 7.424576,1.14796 3.755503,0.61433 7.741223,1.40229 11.835243,1.58656 1.3718,0.046 2.61332,0.0713 3.61811,-0.17009 0.65257,-0.26591 1.04571,-0.29181 0.74592,-0.28313 1.43894,-1.62141 2.60511,-3.53147 3.0381,-5.53354 0.45449,-1.80244 0.36155,-3.89169 -0.1124,-6.00162 -0.52326,-2.31773 -1.62629,-4.67704 -3.03738,-7.05645 -1.57901,-2.63028 -3.58747,-5.16816 -5.86647,-7.65526 -5.00143,-5.45199 -11.202612,-10.35394 -18.110839,-14.78854 -2.701004,-1.72411 -5.499143,-3.36249 -8.386797,-4.89011 -4.610756,-2.43917 -9.301922,-4.51605 -14.011227,-6.20159 -3.684411,-1.29948 -7.340831,-2.39144 -10.925626,-3.14828 -3.584795,-0.75683 -7.097969,-1.17823 -10.507056,-1.17643 -3.081515,2.4e-4 -6.009456,0.30378 -8.637197,1.08175 -2.506548,0.7416 -4.791376,1.86117 -6.596441,3.35158 -2.006589,1.60504 -3.574522,3.76758 -4.692916,6.07031 -1.526496,3.11251 -2.218242,6.60301 -2.577912,9.99058 -0.273345,2.66008 -0.297595,5.24848 -0.199091,7.71957 0.0985,2.47109 0.320108,4.82491 0.578117,7.02764 0.372436,3.1481 0.833268,5.97472 1.26537,8.45001 0.432103,2.4753 0.83632,4.59926 1.139047,6.34172 0.605453,3.4849 0.786542,5.44791 0.288908,5.62312 z"
       id="path3442"
       inkscape:path-effect="#path-effect3444"
       inkscape:original-d="m 28.19027,343.49532 c -41.77164,-118.63753 125.06508,-31.89769 90.17366,3.57143 -5.43615,5.52616 -32.24019,-6.68746 -44.501284,-3.57143"
       inkscape:connector-curvature="0"
       inkscape:export-filename="C:\Users\Marek\Documents\NetBeansProjects\GroovyJavaDemo\src\org\icons\whiteKnight.svg.png"
       inkscape:export-xdpi="90"
       inkscape:export-ydpi="90" />
    <path
       style="fill:#000000;fill-rule:evenodd;stroke:none"
       d="m 71.216912,307.78103 c -0.118749,-0.32151 -0.188254,-0.65429 -0.142987,-0.99561 0.04527,-0.34132 0.207287,-0.69104 0.499504,-1.01422 0.292218,-0.32318 0.715158,-0.61874 1.211348,-0.8292 0.496189,-0.21046 1.064741,-0.33421 1.5801,-0.31195 1.288268,-0.11797 2.766681,0.17405 3.81616,0.58049 0,0 0,0 0,0 0.615868,0.22148 1.219639,0.51622 1.790326,0.87828 1.57009,0.99612 2.594199,2.29162 3.136853,3.63607 0.542654,1.34445 0.63061,2.77421 0.01346,4.00852 -0.617154,1.23431 -1.893255,2.00187 -3.482082,2.14481 -1.588827,0.14293 -3.445255,-0.33558 -5.02987,-1.34172 -0.575967,-0.36571 -1.079088,-0.77444 -1.511191,-1.20918 0,0 0,0 0,0 -0.804647,-0.75457 -1.029459,-1.44332 -1.208064,-2.11251 -0.05116,-0.19063 -0.02523,-0.46294 -0.0065,-0.75129 0.01874,-0.28836 0.02866,-0.59291 -0.01166,-0.88995 -0.04032,-0.29705 -0.131272,-0.58763 -0.255659,-0.88068 -0.124387,-0.29306 -0.281001,-0.59035 -0.39975,-0.91186 z"
       id="path3446"
       inkscape:path-effect="#path-effect3448"
       inkscape:original-d="m 71.216912,307.78103 c 2.2194,-0.81973 5.60667,2.80334 11.90476,5.95238"
       inkscape:connector-curvature="0"
       inkscape:export-xdpi="90"
       inkscape:export-ydpi="90"
       inkscape:export-filename="C:\Users\Marek\Documents\NetBeansProjects\GroovyJavaDemo\src\org\icons\whiteKnight.svg.png" />
    <path
       style="fill:#000000;fill-rule:evenodd;stroke:none"
       d="m 161.83114,340.08477 c 0.31568,-0.005 0.66566,0.8195 0.8577,2.45043 0.19204,1.63093 0.18183,4.07842 -0.21862,7.13377 -0.39886,3.08372 -1.18548,6.82241 -2.33807,11.04948 -0.92109,3.38312 -2.06498,7.10508 -3.37191,11.12203 -1.30693,4.01695 -2.77852,8.32803 -4.25141,12.91903 -1.13317,3.55375 -2.29773,7.26537 -3.32453,11.12199 -1.0268,3.85661 -1.91593,7.85805 -2.42606,12.00117 -0.39791,3.25264 -0.58568,6.53161 -0.23034,9.7115 0.31381,2.73224 0.96246,5.40315 2.18203,7.68181 1.40772,2.71664 3.40984,5.22504 5.84472,7.29469 2.37337,2.03381 5.2389,3.68036 8.36416,4.97332 6.54045,2.72694 14.16605,3.67312 22.04066,3.5312 0.73459,-0.0176 1.47043,-0.0454 2.20717,-0.0835 7.28083,-0.37695 14.36622,-1.75239 20.94691,-3.9901 6.50537,-2.29597 12.4462,-5.09796 16.57596,-9.22771 1.14025,-0.86722 1.73,-2.84677 2.24585,-5.027 0.59471,-3.06218 0.43598,-6.40666 0.12085,-9.81465 0,0 0,0 0,0 -0.4786,-4.88237 -1.42543,-9.58876 -2.55244,-14.10301 -1.12701,-4.51424 -2.43418,-8.83613 -3.71981,-12.94205 -3.43434,-10.90568 -6.94249,-20.10071 -9.65278,-27.31095 -2.06461,-5.49114 -3.69356,-9.81783 -4.69388,-12.82873 -1.00031,-3.0109 -1.36844,-4.70818 -0.9643,-4.91025 0.40414,-0.20207 1.55619,1.10446 3.31385,3.76836 1.75767,2.66389 4.1176,6.68753 6.87539,11.93605 3.62042,6.88846 7.98252,15.88725 12.21372,26.86078 1.58694,4.09303 3.19009,8.49484 4.60881,13.23022 1.41872,4.73539 2.65301,9.8046 3.41516,15.23562 10e-6,0 10e-6,1e-5 10e-6,1e-5 0.55045,3.7869 0.8218,7.95253 0.18344,12.38391 -0.39196,3.33668 -1.74505,7.02731 -4.68013,10.23543 -5.59923,5.59923 -12.75913,9.34682 -20.05634,11.83751 -7.43815,2.62397 -15.44309,4.23257 -23.66552,4.65461 -0.83201,0.0427 -1.66299,0.0731 -2.49251,0.0915 -8.89001,0.24282 -17.90417,-1.04823 -26.06,-4.47267 -3.94587,-1.6668 -7.65958,-3.92538 -10.89085,-6.7681 -3.33341,-2.94928 -6.01177,-6.49771 -7.89821,-10.36938 -1.74756,-3.65558 -2.59735,-7.44745 -2.84133,-11.07495 -0.28814,-4.15708 0.0604,-8.10439 0.69079,-11.77595 0.7943,-4.64059 1.9586,-8.96199 3.25541,-13.00515 1.29681,-4.04315 2.72627,-7.80824 4.12353,-11.32827 1.81246,-4.59313 3.61083,-8.79793 5.24954,-12.65835 1.63872,-3.86042 3.11959,-7.3761 4.39614,-10.54865 1.59387,-3.96575 2.84765,-7.36482 3.75742,-10.17731 0.89882,-2.79869 1.47547,-4.97827 1.87538,-6.47947 0.39992,-1.5012 0.66877,-2.3232 0.98444,-2.32817 z"
       id="path3248-0-4"
       inkscape:path-effect="#path-effect3250-4-9"
       inkscape:original-d="m 161.83114,340.08477 c 0.3495,22.22019 -28.69439,64.50749 -17.30627,87.28373 13.87746,27.75489 66.41352,20.87021 83.52151,3.76223 14.64865,-14.64865 -17.03464,-79.21605 -22.57338,-90.29351"
       inkscape:connector-curvature="0" />
    <path
       style="fill:#000000;fill-rule:evenodd;stroke:none"
       d="m 161.8612,340.15366 c -0.3033,0.15359 -0.84435,-0.17513 -1.59507,-0.9559 -0.75072,-0.78078 -1.71504,-2.01246 -2.81972,-3.70036 -1.10467,-1.6879 -2.35501,-3.83167 -3.56062,-6.48355 -1.20562,-2.65187 -2.37091,-5.81243 -3.11368,-9.57896 0,0 0,0 0,0 -0.66008,-3.42547 -0.83007,-7.37922 0.11494,-11.60048 0.94183,-4.0015 2.89162,-7.95297 5.73581,-11.3841 1.26358,-1.70981 3.29801,-3.3939 6.27879,-4.41327 2.48649,-0.62176 4.92647,-0.41265 7.00016,0.51505 2.11006,0.94655 3.79949,2.18095 5.09791,3.42461 1.49275,1.36945 2.79255,2.79898 3.97467,4.17379 2.31196,2.59238 3.99343,5.0682 5.86307,6.32952 0.63684,0.24889 0.70545,0.50462 0.11418,0.26202 -0.88617,0.32196 -1.08971,0.1629 -0.75661,0.09 7.5e-4,-1.7e-4 0.001,-3.3e-4 0.002,-4.9e-4 1.50325,-1.72921 3.06437,-3.36577 4.66224,-4.91442 2.51294,-2.45226 5.24887,-4.78281 8.26275,-6.77297 1.50305,-0.99885 3.16958,-1.92695 5.00452,-2.67741 1.60865,-0.6937 3.54553,-1.17408 5.72422,-1.23896 2.13192,-0.0456 4.28568,0.59361 6.20927,1.88664 2.18863,1.68535 3.51239,3.6609 4.18772,5.52986 1.71097,4.48279 1.73628,8.71935 1.26447,12.28483 -0.55061,4.8396 -1.72703,9.03259 -2.89684,12.69102 0,10e-6 0,10e-6 0,10e-6 -1.5225,4.80087 -3.08258,8.7872 -4.36251,12.04235 -0.62374,1.60186 -1.19875,3.00337 -1.69786,4.21974 -0.49911,1.21637 -0.92449,2.24735 -1.29116,3.08688 -0.73334,1.67907 -1.25449,2.59875 -1.7105,2.54921 -0.45601,-0.0495 -0.81536,-1.08874 -0.89477,-3.02097 -0.0397,-0.96611 -0.004,-2.15215 0.12045,-3.52501 0.12482,-1.37287 0.34129,-2.93229 0.61758,-4.63321 0.56511,-3.51545 1.46595,-7.72433 2.3325,-12.44655 0,0 0,0 0,0 0.66057,-3.63769 1.35164,-7.5437 1.44303,-11.56756 0.003,-2.99221 -0.0971,-5.93281 -1.25821,-8.05924 -0.48931,-0.81112 -0.83973,-1.44417 -1.13558,-1.46632 -0.0688,-0.0763 -0.39114,-0.0873 -0.732,-0.082 -0.51993,-0.009 -1.25911,0.27905 -2.19805,0.65054 -1.0414,0.45218 -2.11716,1.11881 -3.26181,1.90075 -2.29567,1.58093 -4.51152,3.5683 -6.75423,5.77146 -1.40711,1.39299 -2.776,2.84169 -4.08747,4.35112 -0.003,0.004 -0.005,0.008 -0.008,0.0115 -1.22127,1.71117 -3.55089,3.00562 -6.77745,3.32939 -2.88791,-0.24081 -4.93798,-1.17754 -6.11475,-2.29442 -3.42546,-2.72626 -5.54594,-5.70562 -7.34244,-7.98192 -1.08362,-1.31017 -2.07573,-2.49636 -3.07923,-3.4687 -0.94414,-0.86013 -1.67526,-1.54414 -2.30832,-1.80075 -0.39758,-0.15623 -0.74588,-0.30308 -0.79705,-0.23694 -0.36223,-0.11316 -1.02436,0.55747 -1.94807,1.36436 -2.18411,2.35445 -3.80614,4.98535 -4.66525,7.63665 -0.9558,2.80044 -1.14152,5.7968 -0.9993,8.58986 0,1e-5 0,1e-5 0,1e-5 0.15178,3.16699 0.74336,6.06426 1.38086,8.64003 0.63751,2.57577 1.32512,4.82888 1.86266,6.70184 0.53753,1.87296 0.93027,3.36536 1.09885,4.42638 0.16858,1.06102 0.11714,1.69139 -0.18616,1.84498 z"
       id="path3567"
       inkscape:path-effect="#path-effect3569"
       inkscape:original-d="m 161.8612,340.15366 c -7.23371,-14.28472 -12.47169,-28.56744 -1.865,-40.77155 11.27276,-12.97047 20.04785,19.8503 27.97496,10.72936 2.61168,-3.00502 20.37393,-22.85614 26.10993,-9.65642 4.97094,11.43917 -5.21802,33.00994 -6.52749,45.06329"
       inkscape:connector-curvature="0" />
    <path
       style="fill:#000000;fill-rule:evenodd;stroke:none"
       d="m 175.19374,295.93745 c -0.82301,-0.22825 -1.34084,-1.40073 -1.51427,-3.30797 -0.17342,-1.90724 -0.008,-4.55592 0.69986,-7.71597 0.42263,-1.98734 1.11499,-4.33606 2.53932,-6.89477 0.4369,-1.27038 1.84806,-2.97069 4.73709,-4.46472 1.20844,-0.47912 2.57024,-0.59324 4.02328,-0.29656 0,1e-5 1e-5,1e-5 1e-5,1e-5 1.41582,0.39622 2.48669,0.96163 3.1806,1.61771 0.40814,0.37714 0.7783,0.75509 1.11206,1.12943 1.14236,1.28122 1.82564,2.47962 2.20201,3.45298 0.96337,2.05676 1.56943,4.00094 2.00226,5.75223 1.12102,4.46521 1.44938,8.31693 1.32309,11.10071 -0.12629,2.78377 -0.72042,4.52093 -1.75539,4.77967 -1.03497,0.25874 -2.36706,-1.01882 -3.80374,-3.35761 -1.43668,-2.33879 -2.95494,-5.73011 -4.62225,-9.53677 -0.6635,-1.50109 -1.29323,-2.9802 -2.01752,-4.2903 -0.45604,-0.6873 -0.69094,-1.19451 -0.8058,-1.34782 -0.0336,-0.0448 -0.057,-0.059 -0.0738,-0.0399 0.047,0.11101 0.37734,0.22983 0.98138,0.43541 0,0 0,0 0,0 0.69197,0.11794 1.2485,0.0782 1.73598,-0.13003 0.65135,-0.65341 0.62015,-0.27633 -0.16123,0.35573 -1.05709,1.31623 -1.94462,3.00749 -2.88975,4.64382 -1.4344,2.51479 -2.71297,4.68042 -3.87391,6.13746 -1.16094,1.45704 -2.19626,2.20549 -3.01927,1.97724 z"
       id="path3571"
       inkscape:path-effect="#path-effect3573"
       inkscape:original-d="m 175.19374,295.93745 c 8.59103,-30.97683 13.08258,-16.71663 18.54992,5.15275"
       inkscape:connector-curvature="0" />
    <path
       style="fill:#000000;fill-rule:evenodd;stroke:none"
       d="m 183.43815,274.29587 c -0.68896,-0.0378 -1.31684,-0.51868 -1.88735,-1.31967 -0.57052,-0.80099 -1.08743,-1.92172 -1.5691,-3.28646 -0.48168,-1.36474 -0.93043,-2.97549 -1.3322,-4.79049 -0.40178,-1.81501 -0.75653,-3.83728 -1.00066,-6.02007 -0.24414,-2.1828 -0.34791,-4.32108 -0.28932,-6.30043 0.0586,-1.97936 0.27999,-3.79687 0.64157,-5.32508 0.36159,-1.52821 0.86148,-2.76501 1.44341,-3.60915 0.58193,-0.84414 1.24254,-1.29575 1.93254,-1.29575 0.69,0 1.34422,0.44595 1.95637,1.22326 0.61214,0.77732 1.18555,1.88567 1.7234,3.25195 0.53786,1.36628 1.04214,2.99247 1.4841,4.8334 0.44197,1.84093 0.82134,3.89952 1.06444,6.12012 0.2431,2.2206 0.3203,4.3938 0.22015,6.39683 -0.10014,2.00304 -0.37783,3.83293 -0.79559,5.3596 -0.41776,1.52667 -0.97339,2.74802 -1.59559,3.56624 -0.62221,0.81821 -1.30721,1.23351 -1.99617,1.1957 z"
       id="path3575"
       inkscape:path-effect="#path-effect3577"
       inkscape:original-d="m 183.43815,274.29587 c 0.6554,-11.94346 -2.06111,-23.19041 -2.06111,-31.9471"
       inkscape:connector-curvature="0" />
    <path
       style="fill:#000000;fill-rule:evenodd;stroke:none"
       d="m 169.01043,258.83759 c -0.39264,-1.30849 0.72656,-2.95225 2.94436,-4.44997 2.2178,-1.49771 5.50797,-2.80732 9.15584,-3.60471 0.0749,-0.0165 0.15001,-0.0327 0.22527,-0.0488 3.74394,-0.79888 7.17819,-0.93919 9.76852,-0.59734 2.59033,0.34185 4.36564,1.17873 4.70034,2.51753 0.3347,1.3388 -0.87515,2.93691 -3.13985,4.37754 -2.2647,1.44064 -5.56412,2.69933 -9.2446,3.48274 -0.074,0.0158 -0.14785,0.0313 -0.22158,0.0465 -3.67291,0.76594 -6.99147,0.91241 -9.51119,0.6226 -2.51971,-0.28982 -4.28447,-1.03761 -4.67711,-2.3461 z"
       id="path3579"
       inkscape:path-effect="#path-effect3581"
       inkscape:original-d="m 169.01043,258.83759 c 7.30447,-2.19189 18.81542,-4.18858 26.79433,-6.1833"
       inkscape:connector-curvature="0" />
    <path
       style="fill:#000000;fill-rule:evenodd;stroke:none"
       d="m 538.61806,335.2407 c 0.31568,-0.005 0.66566,0.8195 0.8577,2.45043 0.19204,1.63093 0.18183,4.07842 -0.21862,7.13377 -0.39886,3.08372 -1.18548,6.82241 -2.33807,11.04948 -0.92109,3.38312 -2.06498,7.10508 -3.37191,11.12203 -1.30693,4.01695 -2.77852,8.32803 -4.25141,12.91903 -1.13317,3.55375 -2.29773,7.26537 -3.32453,11.12199 -1.0268,3.85661 -1.91593,7.85805 -2.42606,12.00117 -0.39791,3.25264 -0.58568,6.53161 -0.23034,9.7115 0.31381,2.73224 0.96246,5.40315 2.18203,7.68181 1.40772,2.71664 3.40984,5.22504 5.84472,7.29469 2.37337,2.03381 5.2389,3.68036 8.36416,4.97332 6.54045,2.72694 14.16605,3.67312 22.04066,3.5312 0.73459,-0.0176 1.47043,-0.0454 2.20717,-0.0835 7.28083,-0.37695 14.36622,-1.75239 20.94691,-3.9901 6.50537,-2.29597 12.4462,-5.09796 16.57596,-9.22771 1.14025,-0.86722 1.73,-2.84677 2.24585,-5.027 0.59471,-3.06218 0.43598,-6.40666 0.12085,-9.81465 0,0 0,0 0,0 -0.4786,-4.88237 -1.42543,-9.58876 -2.55244,-14.10301 -1.12701,-4.51424 -2.43418,-8.83613 -3.71981,-12.94205 -3.43434,-10.90568 -6.94249,-20.10071 -9.65278,-27.31095 -2.06461,-5.49114 -3.69356,-9.81783 -4.69388,-12.82873 -1.00031,-3.0109 -1.36844,-4.70818 -0.9643,-4.91025 0.40414,-0.20207 1.55619,1.10446 3.31385,3.76836 1.75767,2.66389 4.1176,6.68753 6.87539,11.93605 3.62042,6.88846 7.98252,15.88725 12.21372,26.86078 1.58694,4.09303 3.19009,8.49484 4.60881,13.23022 1.41872,4.73539 2.65301,9.8046 3.41516,15.23562 10e-6,0 10e-6,10e-6 10e-6,10e-6 0.55045,3.7869 0.8218,7.95253 0.18344,12.38391 -0.39196,3.33668 -1.74505,7.02731 -4.68013,10.23543 -5.59923,5.59923 -12.75913,9.34682 -20.05634,11.83751 -7.43815,2.62397 -15.44309,4.23257 -23.66552,4.65461 -0.83201,0.0427 -1.66299,0.0731 -2.49251,0.0915 -8.89001,0.24282 -17.90417,-1.04823 -26.06,-4.47267 -3.94587,-1.6668 -7.65958,-3.92538 -10.89085,-6.7681 -3.33341,-2.94928 -6.01177,-6.49771 -7.89821,-10.36938 -1.74756,-3.65558 -2.59735,-7.44745 -2.84133,-11.07495 -0.28814,-4.15708 0.0604,-8.10439 0.69079,-11.77595 0.7943,-4.64059 1.9586,-8.96199 3.25541,-13.00515 1.29681,-4.04315 2.72627,-7.80824 4.12353,-11.32827 1.81246,-4.59313 3.61083,-8.79793 5.24954,-12.65835 1.63872,-3.86042 3.11959,-7.3761 4.39614,-10.54865 1.59387,-3.96575 2.84765,-7.36482 3.75742,-10.17731 0.89882,-2.79869 1.47547,-4.97827 1.87538,-6.47947 0.39992,-1.5012 0.66877,-2.3232 0.98444,-2.32817 z"
       id="path3248-0-4-8"
       inkscape:path-effect="#path-effect3250-4-9-8"
       inkscape:original-d="m 538.61806,335.2407 c 0.3495,22.22019 -28.69439,64.50749 -17.30627,87.28373 13.87746,27.75489 66.41352,20.87021 83.52151,3.76223 14.64865,-14.64865 -17.03464,-79.21605 -22.57338,-90.29351"
       inkscape:connector-curvature="0" />
    <path
       style="fill:#000000;fill-rule:evenodd;stroke:none"
       d="m 537.46793,337.5794 c -0.48766,-0.0177 -0.91862,-0.79071 -1.36806,-2.16301 -0.44943,-1.3723 -0.92833,-3.34241 -1.57422,-5.80208 -0.64589,-2.45968 -1.46851,-5.40985 -2.50749,-8.79339 -1.03898,-3.38354 -2.29906,-7.20305 -3.61095,-11.42518 -1.37878,-4.35111 -2.78745,-9.21085 -3.68449,-14.62095 -0.0866,-3.81014 0.10143,-7.81959 0.62641,-11.92881 0.30685,-2.40181 0.72115,-4.77756 1.23625,-7.10498 7.96855,-0.15542 15.51259,-0.25617 22.1717,-0.32928 -0.72709,7.0572 -1.47566,13.36172 -2.20369,18.51368 10e-6,0 10e-6,0 10e-6,0 3.31135,-0.0301 6.08257,0.25078 8.04483,0.73078 1.96225,0.48001 3.11414,1.15747 3.06365,1.77239 -0.0505,0.61492 -1.31715,1.0938 -3.77685,1.21072 -2.45969,0.11693 -6.11382,-0.12979 -10.81606,-0.81785 0,0 0,0 0,0 0.27733,-4.67127 0.77882,-10.58095 1.46795,-17.3614 -4.10785,0.5783 -8.31035,1.18823 -12.70876,1.78102 0.1032,1.46044 0.29968,2.9497 0.58252,4.4638 0.48392,2.59046 1.1987,5.14402 2.04261,7.63228 0.60464,4.75386 1.64697,9.37553 2.58904,13.76603 0.95815,4.32812 1.74943,8.45439 2.22041,12.17875 0.47098,3.72436 0.62642,7.04379 0.52512,9.78095 -0.10131,2.73716 -0.44961,4.89063 -0.8851,6.33967 -0.43549,1.44904 -0.94717,2.19451 -1.43483,2.17686 z"
       id="path3704"
       inkscape:path-effect="#path-effect3706"
       inkscape:original-d="m 537.46793,337.5794 c 0.78372,-21.65816 -10.67843,-36.85891 -8.26116,-59.08837 l 17.44023,-1.05515 -1.83582,17.93754 12.8507,1.05515"
       inkscape:connector-curvature="0" />
    <path
       style="fill:#000000;fill-rule:evenodd;stroke:none"
       d="m 557.27923,296.21594 c -0.61932,-0.036 -1.09883,-1.86169 -1.2326,-5.36116 -0.13378,-3.49948 0.0797,-8.67421 0.7101,-15.27965 0,0 0,0 0,0 5.26832,-0.0292 11.67223,0.0308 19.02132,0.1751 -1.19428,5.12869 -2.51685,10.73867 -3.94727,16.72235 2.80939,0.0444 5.62272,0.0853 8.47909,0.13288 0.16927,-4.48891 0.35209,-9.09441 0.55253,-13.78135 0.0457,-1.06791 0.0918,-2.13015 0.13852,-3.18634 6.211,-0.39111 12.28815,-0.76038 18.12205,-1.10392 1.32849,7.15185 1.62248,14.02749 1.2008,20.31391 -0.42168,6.28643 -1.55586,11.98347 -3.06198,16.92291 -10e-6,0 -10e-6,0 -10e-6,1e-5 -1.64103,4.26886 -3.42938,7.93545 -5.09155,11.09 -1.66216,3.15455 -3.20261,5.79659 -4.51521,7.93355 -2.6252,4.27392 -4.35673,6.54845 -5.07357,6.2515 -0.71684,-0.29695 -0.32287,-3.18631 1.1138,-8.0179 0.71834,-2.4158 1.69709,-5.3102 2.80706,-8.60384 1.10997,-3.29364 2.3548,-6.98385 3.42542,-11.0417 0,0 0,0 0,-1e-5 1.46754,-4.19181 2.80626,-8.82351 3.7023,-13.76678 0.89604,-4.94327 1.34788,-10.19726 1.01242,-15.55973 -2.73077,0.30255 -5.47519,0.59875 -8.28027,0.88778 -0.0908,1.05903 -0.18274,2.12271 -0.27586,3.19062 -0.4087,4.68693 -0.82262,9.26474 -1.23329,13.70055 -6.23707,-0.63836 -12.24854,-1.26325 -17.92325,-1.85882 1.70692,-6.08651 3.33704,-11.83623 4.85351,-17.13651 -4.09376,0.14434 -8.04825,0.20425 -11.78136,0.1751 0,0 0,10e-6 0,10e-6 -0.0554,5.18859 -0.3919,9.47442 -0.90429,12.487 -0.51239,3.01258 -1.19909,4.75045 -1.81841,4.71444 z"
       id="path3716"
       inkscape:path-effect="#path-effect3718"
       inkscape:original-d="m 557.27923,296.21594 1.1001,-18.92113 15.40134,0 -4.40039,16.92943 13.20117,0.99585 1.1001,-16.92943 13.20116,-0.99585 c 3.4171,25.69943 -7.41788,43.13471 -14.30126,59.75092"
       inkscape:connector-curvature="0" />
    <path
       style="fill:#000000;fill-rule:evenodd;stroke:none"
       d="m 654.03982,334.21015 c 0.31568,-0.005 0.66566,0.8195 0.8577,2.45043 0.19204,1.63093 0.18183,4.07842 -0.21862,7.13377 -0.39886,3.08372 -1.18548,6.82241 -2.33807,11.04948 -0.92109,3.38312 -2.06498,7.10508 -3.37191,11.12203 -1.30693,4.01695 -2.77852,8.32803 -4.25141,12.91903 -1.13317,3.55375 -2.29773,7.26537 -3.32453,11.12199 -1.0268,3.85661 -1.91593,7.85805 -2.42606,12.00117 -0.39791,3.25264 -0.58568,6.53161 -0.23034,9.7115 0.31381,2.73224 0.96246,5.40315 2.18203,7.68181 1.40772,2.71664 3.40984,5.22504 5.84472,7.29469 2.37337,2.03381 5.2389,3.68036 8.36416,4.97332 6.54045,2.72694 14.16605,3.67312 22.04066,3.5312 0.73459,-0.0176 1.47043,-0.0454 2.20716,-0.0835 7.28084,-0.37695 14.36623,-1.75239 20.94692,-3.9901 6.50537,-2.29597 12.4462,-5.09796 16.57596,-9.22771 1.14025,-0.86722 1.73,-2.84677 2.24585,-5.027 0.59471,-3.06218 0.43598,-6.40666 0.12085,-9.81465 0,0 0,0 0,0 -0.47861,-4.88237 -1.42544,-9.58876 -2.55245,-14.10301 -1.12701,-4.51424 -2.43418,-8.83613 -3.7198,-12.94205 -3.43434,-10.90568 -6.94249,-20.10071 -9.65278,-27.31095 -2.06461,-5.49114 -3.69356,-9.81783 -4.69388,-12.82873 -1.00031,-3.0109 -1.36844,-4.70818 -0.9643,-4.91025 0.40414,-0.20207 1.55619,1.10446 3.31385,3.76836 1.75767,2.66389 4.1176,6.68753 6.87539,11.93605 3.62042,6.88847 7.98251,15.88725 12.21372,26.86078 1.58693,4.09303 3.19009,8.49484 4.60881,13.23022 1.41871,4.73539 2.653,9.8046 3.41516,15.23562 0,0 0,1e-5 0,1e-5 0.55046,3.7869 0.8218,7.95253 0.18344,12.38391 -0.39195,3.33667 -1.74504,7.02731 -4.68012,10.23543 -5.59923,5.59923 -12.75913,9.34682 -20.05634,11.83751 -7.43815,2.62397 -15.44309,4.23257 -23.66552,4.65461 -0.83201,0.0427 -1.66299,0.0731 -2.49251,0.0915 -8.89001,0.24282 -17.90417,-1.04823 -26.06,-4.47267 -3.94587,-1.6668 -7.65958,-3.92538 -10.89085,-6.7681 -3.33341,-2.94928 -6.01177,-6.49771 -7.89821,-10.36938 -1.74756,-3.65558 -2.59735,-7.44745 -2.84133,-11.07495 -0.28814,-4.15708 0.0604,-8.10439 0.69079,-11.77595 0.7943,-4.64059 1.9586,-8.96199 3.25541,-13.00515 1.29681,-4.04315 2.72627,-7.80824 4.12353,-11.32827 1.81246,-4.59313 3.61083,-8.79793 5.24954,-12.65835 1.63872,-3.86042 3.11959,-7.3761 4.39614,-10.54865 1.59387,-3.96575 2.84765,-7.36482 3.75742,-10.17731 0.89882,-2.79869 1.47547,-4.97827 1.87538,-6.47947 0.39992,-1.5012 0.66877,-2.3232 0.98444,-2.32817 z"
       id="path3248-0-4-8-4"
       inkscape:path-effect="#path-effect3250-4-9-8-2"
       inkscape:original-d="m 654.03982,334.21015 c 0.3495,22.22019 -28.69439,64.50749 -17.30627,87.28373 13.87746,27.75489 66.41352,20.87021 83.52151,3.76223 14.64864,-14.64865 -17.03464,-79.21605 -22.57338,-90.29351"
       inkscape:connector-curvature="0" />
    <path
       style="fill:#000000;fill-rule:evenodd;stroke:none"
       d="m 698.71385,337.88386 c -0.17628,-0.23303 0.27281,-0.91571 1.2241,-2.05258 0.95129,-1.13687 2.40467,-2.73293 4.14947,-4.87413 1.7448,-2.14119 3.7822,-4.83303 5.80478,-8.16296 2.02258,-3.32994 4.03178,-7.30289 5.6028,-11.92886 1.79684,-4.16293 3.36541,-8.81572 4.73725,-13.93163 1.37185,-5.11591 2.54412,-10.69676 3.80531,-16.63205 -2.52646,1.72931 -4.87791,4.30825 -6.78675,7.5646 -2.59966,2.19672 -4.94545,4.96937 -7.17243,8.06301 -2.45017,2.44992 -4.79613,5.24421 -7.33255,8.20086 -2.53642,2.95666 -5.26366,6.07557 -8.53524,9.12558 -4.50852,-8.24976 -7.68679,-17.03449 -10.72825,-25.69623 0.005,-4.93428 0.10723,-9.80366 -0.32035,-14.30059 -0.19753,-2.07743 -0.50798,-4.05255 -0.98813,-5.90105 -3.32401,5.84341 -6.01322,11.96893 -8.47391,18.13524 -2.46068,6.16631 -4.69422,12.37243 -7.01231,18.40931 -3.27905,-7.18892 -8.50942,-13.70647 -14.19998,-19.29069 -1.83149,-2.30905 -3.82814,-4.49582 -5.85683,-6.63845 -0.20742,-1.77102 -0.68409,-3.64128 -1.12574,-5.81308 -0.36795,4.89618 0.1159,9.92448 1.07128,14.68921 -0.0496,5.54583 0.7173,10.79083 1.63626,15.56894 0.95184,4.93612 2.09425,9.38675 3.0729,13.31514 0.97866,3.92839 1.80201,7.33183 2.37325,10.13189 1.14247,5.60012 1.30851,8.75638 0.74136,8.8968 -0.56715,0.14042 -1.80981,-2.7004 -3.93299,-7.93481 -1.06158,-2.61721 -2.35404,-5.83528 -3.79667,-9.65091 -1.44264,-3.81563 -3.04413,-8.22689 -4.48053,-13.32459 -1.39367,-4.93797 -2.61136,-10.5458 -2.95676,-16.81869 0.68989,-5.84365 2.38092,-12.20551 5.51208,-18.70036 2.2911,1.13939 5.01887,2.26625 7.93808,3.65902 2.20787,2.14428 4.45721,4.43801 6.63279,6.98362 3.87924,6.00981 6.87605,13.42364 7.52974,22.1308 2.15963,-6.01983 4.29511,-12.34679 6.74057,-18.80945 2.44545,-6.46265 5.2025,-13.06052 8.68975,-19.56742 1.62356,2.39984 3.04829,4.84951 4.32542,7.31992 2.76457,5.3476 4.78191,10.66371 6.6591,15.66855 0.12965,8.17545 0.23898,15.89191 1.71199,22.68428 1.37672,-2.5822 2.49313,-5.54722 3.68205,-8.61771 1.18891,-3.07048 2.45057,-6.24612 4.0514,-9.29062 2.6078,-3.46383 5.58174,-6.70092 8.9858,-9.41857 4.79442,-2.23064 10.01212,-3.67659 15.28686,-4.23471 -0.33412,6.95131 -0.82773,13.60495 -1.74007,19.71381 -0.91233,6.10886 -2.24003,11.67336 -3.97546,16.56204 -2.1799,4.98589 -4.80625,9.10651 -7.40567,12.4318 -2.59942,3.32528 -5.17304,5.86048 -7.39761,7.74714 -2.22456,1.88667 -4.10148,3.13025 -5.43763,3.86287 -1.33616,0.73262 -2.13225,0.95874 -2.30853,0.72571 z"
       id="path3789"
       inkscape:path-effect="#path-effect3791"
       inkscape:original-d="m 698.71385,337.88386 c 19.81284,-14.98822 23.69649,-34.28892 26.79434,-59.31279 -17.18925,5.04016 -23.48102,23.24841 -30.91654,32.25783 -6.58595,-16.56208 -5.87882,-32.6835 -12.36662,-45.78531 -7.33445,13.29897 -11.23236,26.08201 -15.45827,37.46071 -4.26661,-17.24555 -17.49247,-27.23047 -21.64158,-32.25783 -6.96569,22.67618 4.07699,43.52154 9.27496,64.51567"
       inkscape:connector-curvature="0" />
    <path
       style="fill:#000000;fill-rule:evenodd;stroke:none"
       d="m 728.59984,262.95981 c 0.42298,0.7103 0.2213,1.7307 -0.31396,2.91449 -0.53527,1.1838 -1.4252,2.50352 -1.85401,3.86952 -0.0775,0.77324 -0.22139,1.16408 0.18122,0.47358 -0.10777,-0.61171 -0.0563,-0.95861 -0.18211,-1.00329 0.0775,0.0405 0.37866,0.0697 0.81464,0.1845 0.006,0.002 0.0129,0.003 0.0193,0.005 0.46239,0.0361 0.79565,0.0967 0.94343,0.0756 -0.0407,-0.0248 -0.0509,0.27377 -0.31209,0.7341 0.13246,0.74333 0.16693,0.35255 0.37118,-0.33877 0,0 0,0 0,0 0.0532,-0.67884 -0.0237,-1.39168 -0.11411,-2.09453 -0.0904,-0.70285 -0.19461,-1.39415 -0.24079,-2.02577 -0.0924,-1.26322 0.0609,-2.27262 0.68725,-2.79458 0.62635,-0.52196 1.65235,-0.54347 2.96136,0.0698 0.65451,0.30664 1.37778,0.77964 2.11903,1.48383 0.74124,0.7042 1.5015,1.64105 2.18228,2.89509 0,1e-5 0,1e-5 0,1e-5 0.91189,1.48803 1.38038,3.82638 0.29914,6.9752 -1.12647,2.17533 -2.86058,3.7717 -4.87536,4.3999 -1.88334,0.65084 -3.82532,0.81621 -5.59993,0.49465 -0.0256,-0.003 -0.0512,-0.007 -0.0769,-0.0105 -1.7407,-0.24601 -3.51442,-1.00711 -5.10146,-2.2261 -1.74351,-1.26876 -2.8523,-3.39073 -3.15225,-5.8734 0.12549,-3.38841 1.40235,-5.4002 2.7644,-6.43896 1.07996,-0.9462 2.12624,-1.57405 3.07563,-1.9916 0.9494,-0.41755 1.80333,-0.62582 2.53559,-0.69972 1.46452,-0.14779 2.44546,0.21152 2.86844,0.92182 z"
       id="path3797"
       inkscape:path-effect="#path-effect3799"
       inkscape:original-d="m 728.59984,262.95981 c -20.68921,12.32023 15.02474,18.02968 0,0 z"
       inkscape:connector-curvature="0" />
    <path
       style="fill:#000000;fill-rule:evenodd;stroke:none"
       d="m 680.16393,254.7154 c 0.67319,0.4395 0.84371,1.55916 0.72256,3.07437 -0.0606,0.7576 -0.18993,1.60712 -0.29085,2.47652 -0.10093,0.8694 -0.17445,1.75649 -0.0408,2.58881 0,0 0,0 0,0 0.1234,0.40212 0.17125,0.5513 0.26724,0.19303 -0.0414,-0.38437 -0.207,-0.73584 -0.6103,-1.12919 -0.34442,-0.2262 -0.45555,-0.3926 -0.37028,-0.37311 0.13149,-0.0253 0.4009,-0.11975 0.82556,-0.21317 0.97364,-0.23875 2.05576,-0.72365 3.27487,-1.33172 0.0466,-0.0258 0.093,-0.0515 0.13912,-0.0771 1.11095,-0.61691 2.02879,-1.158 2.65969,-1.74081 0.2585,-0.26066 0.42409,-0.34776 0.43411,-0.32224 -0.0635,0.0526 -0.009,0.39708 0.0213,1.02133 0.23834,0.7451 0.45995,1.10347 0.75309,1.22402 0.26613,3.2e-4 0.0598,-0.15955 -0.33896,-0.49897 -0.80323,-0.56735 -1.71583,-0.99648 -2.60248,-1.39362 -0.88666,-0.39714 -1.74595,-0.76066 -2.4753,-1.13311 -1.4587,-0.7449 -2.36859,-1.52722 -2.36859,-2.36502 0,-0.8378 0.8537,-1.66048 2.52223,-2.30244 0.83426,-0.32098 1.87913,-0.59032 3.15305,-0.71163 1.27391,-0.12131 2.77917,-0.0949 4.51783,0.2497 1.01561,0.16798 2.28689,0.67747 3.73045,1.81833 1.05997,0.86335 1.87746,2.21589 2.24238,4.07319 0.1513,1.68353 -0.0801,3.12515 -0.6295,4.17439 -0.56379,1.20259 -1.23309,2.18312 -1.91671,2.90681 -1.48887,1.63199 -3.23271,2.92649 -5.02015,3.84412 -0.0743,0.0381 -0.14845,0.0755 -0.22251,0.11225 -1.89433,1.00456 -4.04756,1.71644 -6.28599,2.01129 -1.00934,0.14481 -2.17437,0.1519 -3.4245,-0.0232 -1.10844,-0.10997 -2.38588,-0.6055 -3.68,-1.47479 -1.34304,-1.02968 -2.17375,-2.33928 -2.53964,-3.75041 -0.36657,-1.822 -0.21137,-3.19595 0.15835,-4.17569 0,0 0,0 0,0 0.5754,-1.64586 1.31573,-2.89562 2.06266,-3.86242 0.74694,-0.9668 1.50227,-1.65256 2.1896,-2.1389 0.68733,-0.48634 1.3091,-0.77356 1.83828,-0.89493 0.52918,-0.12136 0.96758,-0.0754 1.30417,0.14435 z"
       id="path3801"
       inkscape:path-effect="#path-effect3803"
       inkscape:original-d="m 680.16393,254.7154 c -16.93105,25.93368 33.13782,0 0,0 z"
       inkscape:connector-curvature="0" />
    <path
       style="fill:#000000;fill-rule:evenodd;stroke:none"
       d="m 645.12518,259.86815 c 0.48919,0.65419 0.291,1.75989 -0.38776,3.13826 -0.33938,0.68919 -0.79408,1.44335 -1.2873,2.24065 -0.49323,0.7973 -1.02472,1.63618 -1.47405,2.52108 -0.19498,0.55432 -0.23907,0.56498 0.2238,-0.13004 0.2516,-0.2962 0.20704,-1.07231 -0.11314,-2.40231 -0.64347,-1.19137 -1.31069,-1.91632 -2.04745,-2.14348 -10e-6,-10e-6 -10e-6,-10e-6 -10e-6,-10e-6 -1.24625,-0.29312 -1.72764,-0.51795 -1.34531,-0.4049 0.1812,-0.0889 0.47516,-0.26264 0.92901,-0.47327 1.09142,-0.53961 2.24146,-1.22516 3.47873,-2.01084 0.43821,-0.29351 0.86132,-0.57515 1.25862,-0.85062 0.68847,-0.47736 1.27248,-0.91935 1.72837,-1.3666 0.2826,-0.30334 0.45916,-0.41499 0.46395,-0.40034 -0.0861,0.0353 -0.0416,0.43542 -0.024,1.18417 0.28615,0.89496 0.53931,1.32856 0.87518,1.45409 0.27769,0.002 0.0437,-0.14343 -0.41163,-0.48513 -0.90402,-0.55974 -1.89843,-0.98644 -2.85685,-1.38582 -0.95842,-0.39939 -1.87908,-0.77004 -2.65989,-1.15447 -1.56164,-0.76887 -2.53359,-1.59523 -2.53359,-2.48317 0,-0.88794 0.91406,-1.7526 2.66938,-2.42979 0.87767,-0.33859 1.97284,-0.62417 3.30038,-0.76378 1.32753,-0.13962 2.88986,-0.13336 4.68407,0.18107 1.01693,0.13528 2.3287,0.61113 3.86045,1.73126 1.12408,0.82811 2.0081,2.22426 2.42555,4.21348 0.14322,1.79597 -0.11869,3.27711 -0.69663,4.28835 -0.5918,1.19848 -1.26887,2.15649 -1.933,2.85041 -0.97519,1.06024 -2.0367,1.97919 -3.12521,2.75342 -0.62816,0.4468 -1.25173,0.83657 -1.85977,1.17779 -1.70823,1.00126 -3.54558,1.80484 -5.40595,2.34541 -0.7272,0.22157 -1.61079,0.41994 -2.60884,0.53728 -0.38552,0.2473 -1.67654,0.14797 -3.6152,-0.43702 0,-10e-6 -1e-5,-10e-6 -1e-5,-10e-6 -0.95519,-0.31923 -1.81799,-1.20483 -2.55108,-2.61248 -0.42545,-1.58408 -0.43711,-2.64915 -0.11276,-3.2063 0.76436,-1.77637 1.49106,-2.6082 1.98591,-2.84211 1.17303,-0.9689 2.29149,-1.65081 3.30477,-2.14363 1.01327,-0.49281 1.92294,-0.79697 2.70917,-0.96829 1.57245,-0.34263 2.66289,-0.1765 3.15208,0.47769 z"
       id="path3805"
       inkscape:path-effect="#path-effect3807"
       inkscape:original-d="m 645.12518,259.86815 c -25.5642,19.11646 29.11655,-5.15275 -6.18331,-5.15275"
       inkscape:connector-curvature="0" />
    <path
       style="fill:#000000;fill-opacity:1;fill-rule:evenodd;stroke:#000000;stroke-width:0.29269084000000001;stroke-linejoin:miter;stroke-miterlimit:4;stroke-dasharray:none"
       d="m 76.963678,315.07489 c -2.782326,-0.75119 -4.532433,-2.80775 -5.028314,-5.90882 -0.48553,-3.03634 0.268508,-4.19979 2.721912,-4.19979 4.289883,0 8.304165,3.33786 8.304165,6.90487 0,2.99983 -2.267282,4.21091 -5.997763,3.20374 z"
       id="path4653"
       inkscape:connector-curvature="0" />
    <path
       style="fill:#f9f9f9;fill-opacity:1;fill-rule:evenodd;stroke:#000000;stroke-width:0.29269084;stroke-linejoin:miter;stroke-miterlimit:4;stroke-dasharray:none"
       d="m 76.437622,314.95075 c -2.64858,-0.97459 -4.015139,-2.7384 -4.50757,-5.8179 -0.479889,-3.00106 0.282992,-4.16657 2.727224,-4.16657 4.289883,0 8.304165,3.33786 8.304165,6.90487 0,3.12085 -2.808634,4.44668 -6.523819,3.0796 z"
       id="path4657"
       inkscape:connector-curvature="0" />
    <path
       style="fill:#000000;fill-opacity:1;fill-rule:evenodd;stroke:#000000;stroke-width:0.29269084;stroke-linejoin:miter;stroke-miterlimit:4;stroke-dasharray:none"
       d="m 45.775309,446.49539 c -6.814649,-0.51333 -9.983055,-1.22151 -16.211444,-3.62343 -5.958776,-2.29795 -12.244995,-7.83377 -14.796751,-13.03043 -1.59839,-3.25513 -1.679229,-3.82661 -1.671641,-11.81741 0.0096,-10.0936 0.665715,-12.94664 8.718961,-37.91242 8.734627,-27.07811 8.88015,-28.39189 5.400439,-48.75526 -1.656023,-9.6911 -1.864525,-12.12096 -1.646895,-19.19284 0.312568,-10.15696 1.506111,-13.76494 6.059975,-18.3188 3.635149,-3.63515 7.054736,-5.00953 13.682666,-5.49927 23.986379,-1.77234 66.051921,23.33269 72.432181,43.22807 1.15615,3.60521 0.52198,8.28923 -1.47716,10.91023 l -1.69119,2.21727 -4.5607,-0.3998 c -2.50838,-0.21989 -7.79949,-0.96268 -11.758012,-1.65063 -9.507607,-1.65233 -20.976128,-1.83182 -23.220911,-0.36343 -1.963253,1.28424 -2.004464,1.10996 4.151538,17.55857 12.402067,33.13791 16.645251,47.7782 17.399331,60.03311 0.571719,9.29114 -0.687853,12.27435 -7.026715,16.64231 -6.410979,4.41765 -20.442739,8.97952 -29.822531,9.69562 -2.565534,0.19587 -5.474306,0.43524 -6.463937,0.53194 -0.989631,0.0967 -4.363372,-0.0173 -7.497204,-0.2534 z m 36.7363,-131.77249 c 1.449396,-1.30617 1.332331,-4.67608 -0.239107,-6.88295 -2.173559,-3.05249 -7.82912,-4.53288 -10.330223,-2.70403 -1.583347,1.15777 -0.73519,6.75261 1.311171,8.64912 2.790171,2.58584 6.96068,3.00832 9.258159,0.93786 l 0,0 z"
       id="path4659"
       inkscape:connector-curvature="0" />
  </g>
</svg>
